<svg xmlns="http://www.w3.org/2000/svg" xmlns:xlink="http://www.w3.org/1999/xlink" viewBox="0 0 500 500" width="500" height="500" style="width: 100%; height: 100%; transform: translate3d(0px, 0px, 0px); content-visibility: visible;" preserveAspectRatio="xMidYMid meet"><defs><clipPath id="__lottie_element_2"><rect width="500" height="500" x="0" y="0"/></clipPath><clipPath id="__lottie_element_4"><path d="M0,0 L500,0 L500,500 L0,500z"/></clipPath></defs><g clip-path="url(#__lottie_element_2)"><g clip-path="url(#__lottie_element_4)" style="display: block;" transform="matrix(1,0,0,1,0,0)" opacity="1"><g class="primary design" style="display: block;" transform="matrix(20.829999923706055,0,0,20.829999923706055,374.9809875488281,302.07501220703125)" opacity="1"><g opacity="1" transform="matrix(1,0,0,1,0,0)"><path class="primary" fill="rgb(0,0,0)" fill-opacity="1" d=" M0.9729999899864197,-6.5 C0.9729999899864197,-6.5 -0.9729999899864197,-6.5 -0.9729999899864197,-6.5 C-1.5399999618530273,-6.5 -2,-6.039999961853027 -2,-5.4730000495910645 C-2,-5.4730000495910645 -2,5.4730000495910645 -2,5.4730000495910645 C-2,6.039999961853027 -1.5399999618530273,6.5 -0.9729999899864197,6.5 C-0.9729999899864197,6.5 0.9729999899864197,6.5 0.9729999899864197,6.5 C1.5399999618530273,6.5 2,6.039999961853027 2,5.4730000495910645 C2,5.4730000495910645 2,-5.4730000495910645 2,-5.4730000495910645 C2,-6.039999961853027 1.5399999618530273,-6.5 0.9729999899864197,-6.5z"/></g></g><g class="primary design" style="display: block;" transform="matrix(20.829999923706055,0,0,20.829999923706055,250,260.4150085449219)" opacity="1"><g opacity="1" transform="matrix(1,0,0,1,0,0)"><path class="primary" fill="rgb(0,0,0)" fill-opacity="1" d=" M0.8259999752044678,-8.5 C0.8259999752044678,-8.5 -0.8259999752044678,-8.5 -0.8259999752044678,-8.5 C-1.4739999771118164,-8.5 -2,-7.974999904632568 -2,-7.326000213623047 C-2,-7.326000213623047 -2,7.326000213623047 -2,7.326000213623047 C-2,7.973999977111816 -1.4739999771118164,8.5 -0.8259999752044678,8.5 C-0.8259999752044678,8.5 0.8259999752044678,8.5 0.8259999752044678,8.5 C1.4739999771118164,8.5 2,7.973999977111816 2,7.326000213623047 C2,7.326000213623047 2,-7.326000213623047 2,-7.326000213623047 C2,-7.974999904632568 1.4739999771118164,-8.5 0.8259999752044678,-8.5z"/></g></g><g class="primary design" style="display: block;" transform="matrix(20.829999923706055,0,0,20.829999923706055,125.0199966430664,343.7349853515625)" opacity="1"><g opacity="1" transform="matrix(1,0,0,1,0,0)"><path class="primary" fill="rgb(0,0,0)" fill-opacity="1" d=" M1.1460000276565552,-4.5 C1.1460000276565552,-4.5 -1.1460000276565552,-4.5 -1.1460000276565552,-4.5 C-1.6180000305175781,-4.5 -2,-4.118000030517578 -2,-3.6459999084472656 C-2,-3.6459999084472656 -2,3.6459999084472656 -2,3.6459999084472656 C-2,4.118000030517578 -1.6180000305175781,4.5 -1.1460000276565552,4.5 C-1.1460000276565552,4.5 1.1460000276565552,4.5 1.1460000276565552,4.5 C1.6180000305175781,4.5 2,4.118000030517578 2,3.6459999084472656 C2,3.6459999084472656 2,-3.6459999084472656 2,-3.6459999084472656 C2,-4.118000030517578 1.6180000305175781,-4.5 1.1460000276565552,-4.5z"/></g></g></g></g></svg>