<svg xmlns="http://www.w3.org/2000/svg" xmlns:xlink="http://www.w3.org/1999/xlink" viewBox="0 0 500 500" width="500" height="500" style="width: 100%; height: 100%; transform: translate3d(0px, 0px, 0px); content-visibility: visible;" preserveAspectRatio="xMidYMid meet"><defs><clipPath id="__lottie_element_2"><rect width="500" height="500" x="0" y="0"/></clipPath><clipPath id="__lottie_element_4"><path d="M0,0 L500,0 L500,500 L0,500z"/></clipPath></defs><g clip-path="url(#__lottie_element_2)"><g clip-path="url(#__lottie_element_4)" style="display: block;" transform="matrix(1,0,0,1,0,0)" opacity="1"><g class="primary design" style="display: none;"><g><path stroke-linecap="round" stroke-linejoin="round" fill-opacity="0" class="primary"/></g></g><g class="primary design" style="display: none;"><g><path stroke-linecap="round" stroke-linejoin="round" fill-opacity="0" class="primary"/></g></g><g class="primary design" style="display: none;"><g><path stroke-linecap="round" stroke-linejoin="round" fill-opacity="0" class="primary"/></g><g><path stroke-linecap="round" stroke-linejoin="round" fill-opacity="0" class="primary"/></g></g><g class="primary design" style="display: block;" transform="matrix(20.829999923706055,0,0,20.829999923706055,416.6390075683594,249.99598693847656)" opacity="1"><g opacity="1" transform="matrix(1,0,0,1,0,0)"><path class="primary" fill="rgb(0,0,0)" fill-opacity="1" d=" M0,-8 C-0.5529999732971191,-8 -1,-7.552000045776367 -1,-7 C-1,-7 -1,7 -1,7 C-1,7.552000045776367 -0.5529999732971191,8 0,8 C0.5529999732971191,8 1,7.552000045776367 1,7 C1,7 1,-7 1,-7 C1,-7.552000045776367 0.5529999732971191,-8 0,-8z"/></g></g><g class="primary design" style="display: block;" transform="matrix(20.829999923706055,0,0,20.829999923706055,250,250)" opacity="1"><g opacity="1" transform="matrix(1,0,0,1,0,0)"><path class="primary" fill="rgb(0,0,0)" fill-opacity="1" d=" M-5.506999969482422,-8 C-5.506999969482422,-8 -6.000999927520752,-8 -6.000999927520752,-8 C-7.73799991607666,-8 -9,-6.836999893188477 -9,-5.234000205993652 C-9,-5.234000205993652 -9,6.985000133514404 -9,6.985000133514404 C-9,7.5370001792907715 -8.553000450134277,7.985000133514404 -8,7.985000133514404 C-7.447000026702881,7.985000133514404 -7,7.5370001792907715 -7,6.985000133514404 C-7,6.985000133514404 -7,1.2649999856948853 -7,1.2649999856948853 C-7,1.2649999856948853 -4.5,1.2649999856948853 -4.5,1.2649999856948853 C-4.5,1.2649999856948853 -4.5,7 -4.5,7 C-4.5,7.552000045776367 -4.052999973297119,8 -3.5,8 C-2.947000026702881,8 -2.5,7.552000045776367 -2.5,7 C-2.5,7 -2.5,-5.234000205993652 -2.5,-5.234000205993652 C-2.5,-6.836999893188477 -3.765000104904175,-8 -5.506999969482422,-8z M-7,-0.7350000143051147 C-7,-0.7350000143051147 -7,-5.234000205993652 -7,-5.234000205993652 C-7,-5.945000171661377 -6.235000133514404,-6 -6.000999927520752,-6 C-6.000999927520752,-6 -5.506999969482422,-6 -5.506999969482422,-6 C-5.339000225067139,-6 -4.5,-5.9629998207092285 -4.5,-5.234000205993652 C-4.5,-5.234000205993652 -4.5,-0.7350000143051147 -4.5,-0.7350000143051147 C-4.5,-0.7350000143051147 -7,-0.7350000143051147 -7,-0.7350000143051147z"/></g></g><g class="primary design" style="display: block;" transform="matrix(20.829999923706055,0,0,20.829999923706055,250,250)" opacity="1"><g opacity="1" transform="matrix(1,0,0,1,0,0)"><path class="primary" fill="rgb(0,0,0)" fill-opacity="1" d=" M2.4779999256134033,-8 C2.4779999256134033,-8 0.008999999612569809,-8 0.008999999612569809,-8 C-0.5429999828338623,-8 -0.9909999966621399,-7.552999973297119 -0.9909999966621399,-7.000999927520752 C-0.9909999966621399,-7.000999927520752 -0.9959999918937683,0.16300000250339508 -0.9959999918937683,0.16300000250339508 C-0.9990000128746033,0.1940000057220459 -1,0.22599999606609344 -1,0.25699999928474426 C-1,0.2879999876022339 -0.9990000128746033,0.3179999887943268 -0.9959999918937683,0.3479999899864197 C-0.9959999918937683,0.3479999899864197 -1,6.999000072479248 -1,6.999000072479248 C-1,7.551000118255615 -0.5529999732971191,8 -0.0010000000474974513,8 C0,8 0,8 0,8 C0.5519999861717224,8 1,7.552000045776367 1,7 C1,7 1.003999948501587,1.2569999694824219 1.003999948501587,1.2569999694824219 C1.003999948501587,1.2569999694824219 2.4700000286102295,1.2569999694824219 2.4700000286102295,1.2569999694824219 C4.140999794006348,1.2569999694824219 5.5,-0.08799999952316284 5.5,-1.7410000562667847 C5.5,-1.7410000562667847 5.5,-5.232999801635742 5.5,-5.232999801635742 C5.5,-6.836999893188477 4.229000091552734,-8 2.4779999256134033,-8z M3.5,-1.7410000562667847 C3.5,-1.190999984741211 3.0380001068115234,-0.7429999709129333 2.4700000286102295,-0.7429999709129333 C2.4700000286102295,-0.7429999709129333 1.0049999952316284,-0.7429999709129333 1.0049999952316284,-0.7429999709129333 C1.0049999952316284,-0.7429999709129333 1.0080000162124634,-6 1.0080000162124634,-6 C1.0080000162124634,-6 2.4779999256134033,-6 2.4779999256134033,-6 C2.6489999294281006,-6 3.5,-5.9629998207092285 3.5,-5.232999801635742 C3.5,-5.232999801635742 3.5,-1.7410000562667847 3.5,-1.7410000562667847z"/></g></g></g></g></svg>