<svg xmlns="http://www.w3.org/2000/svg" xmlns:xlink="http://www.w3.org/1999/xlink" viewBox="0 0 500 500" width="500" height="500" style="width: 100%; height: 100%; transform: translate3d(0px, 0px, 0px); content-visibility: visible;" preserveAspectRatio="xMidYMid meet"><defs><clipPath id="__lottie_element_2"><rect width="500" height="500" x="0" y="0"/></clipPath><clipPath id="__lottie_element_4"><path d="M0,0 L500,0 L500,500 L0,500z"/></clipPath><g id="__lottie_element_24"><g clip-path="url(#__lottie_element_25)" style="display: none;" transform="matrix(1,0,0,1,0,0)" opacity="1"><g class="primary design" style="display: block;" transform="matrix(0,1,-1,0,250.00399780273438,250.0030059814453)" opacity="1"><g opacity="1" transform="matrix(1,0,0,1,0,0)"><path stroke-linecap="round" stroke-linejoin="round" fill-opacity="0" stroke="rgb(0,0,0)" stroke-opacity="1" stroke-width="41" d=" M67.70899963378906,67.70899963378906 C67.70899963378906,67.70899963378906 -67.70899963378906,-67.70899963378906 -67.70899963378906,-67.70899963378906"/></g></g><g class="primary design" style="display: block;" transform="matrix(0.00023878093634266406,1,-1,0.00023878093634266406,250.00399780273438,250.0030059814453)" opacity="1"><g opacity="1" transform="matrix(1,0,0,1,0,0)"><path stroke-linecap="round" stroke-linejoin="round" fill-opacity="0" stroke="rgb(0,0,0)" stroke-opacity="1" stroke-width="41" d=" M-67.70899963378906,67.70899963378906 C-67.70899963378906,67.70899963378906 67.70899963378906,-67.70899963378906 67.70899963378906,-67.70899963378906"/></g></g></g></g><clipPath id="__lottie_element_25"><path d="M0,0 L500,0 L500,500 L0,500z"/></clipPath><filter id="__lottie_element_28" filterUnits="objectBoundingBox" x="0%" y="0%" width="100%" height="100%"><feComponentTransfer in="SourceGraphic"><feFuncA type="table" tableValues="1.0 0.0"/></feComponentTransfer></filter><mask id="__lottie_element_24_2" mask-type="alpha" maskUnits="userSpaceOnUse"><g filter="url(#__lottie_element_28)"><rect width="500" height="500" x="0" y="0" fill="#ffffff" opacity="0"/><use a0:href="#__lottie_element_24" xmlns:a0="http://www.w3.org/1999/xlink"/></g></mask></defs><g clip-path="url(#__lottie_element_2)"><g clip-path="url(#__lottie_element_4)" style="display: block;" transform="matrix(1,0,0,1,0,0)" opacity="1"><g style="display: none;" mask="url(#__lottie_element_24_2)"><g class="primary design" transform="matrix(-1,0,0,-1,250.00399780273438,250.0030059814453)" opacity="1"><path class="primary" fill="rgb(0,0,0)" fill-opacity="1" d=" M192.65199279785156,-4.656000137329102 C195.2239990234375,101.74299621582031 111.05500030517578,190.0800018310547 4.656000137329102,192.65199279785156 C-101.74299621582031,195.2239990234375 -190.0800018310547,111.05500030517578 -192.65199279785156,4.656000137329102 C-195.2239990234375,-101.74299621582031 -111.05500030517578,-190.0800018310547 -4.656000137329102,-192.65199279785156 C101.74299621582031,-195.2239990234375 190.0800018310547,-111.05500030517578 192.65199279785156,-4.656000137329102z"/><g opacity="1" transform="matrix(1,0,0,1,0,0)"><path stroke-linecap="round" stroke-linejoin="round" fill-opacity="0" class="primary" stroke="rgb(0,0,0)" stroke-opacity="1" stroke-width="31.3" d=" M192.65199279785156,-4.656000137329102 C195.2239990234375,101.74299621582031 111.05500030517578,190.0800018310547 4.656000137329102,192.65199279785156 C-101.74299621582031,195.2239990234375 -190.0800018310547,111.05500030517578 -192.65199279785156,4.656000137329102 C-195.2239990234375,-101.74299621582031 -111.05500030517578,-190.0800018310547 -4.656000137329102,-192.65199279785156 C101.74299621582031,-195.2239990234375 190.0800018310547,-111.05500030517578 192.65199279785156,-4.656000137329102z"/></g></g></g><g class="primary design" style="display: block;" transform="matrix(20.829999923706055,0,0,20.829999923706055,250,250)" opacity="1"><g opacity="1" transform="matrix(1,0,0,1,0,0)"><path class="primary" fill="rgb(0,0,0)" fill-opacity="1" d=" M-0.23999999463558197,-10 C-5.75,-9.859999656677246 -10.130000114440918,-5.269999980926514 -10,0.23999999463558197 C-9.869999885559082,5.670000076293945 -5.409999847412109,10 0,10 C0,10 0.23999999463558197,10 0.23999999463558197,10 C5.75,9.859999656677246 10.130000114440918,5.269999980926514 10,-0.23999999463558197 C9.859999656677246,-5.75 5.289999961853027,-10.140000343322754 -0.23999999463558197,-10z M3.9600000381469727,2.5399999618530273 C4.349999904632568,2.930000066757202 4.349999904632568,3.569999933242798 3.9600000381469727,3.9600000381469727 C3.759999990463257,4.150000095367432 3.509999990463257,4.25 3.25,4.25 C2.990000009536743,4.25 2.740000009536743,4.150000095367432 2.5399999618530273,3.9600000381469727 C2.5399999618530273,3.9600000381469727 0,1.4199999570846558 0,1.4199999570846558 C0,1.4199999570846558 -2.5399999618530273,3.9600000381469727 -2.5399999618530273,3.9600000381469727 C-2.740000009536743,4.150000095367432 -2.990000009536743,4.25 -3.25,4.25 C-3.509999990463257,4.25 -3.759999990463257,4.150000095367432 -3.9600000381469727,3.9600000381469727 C-4.349999904632568,3.569999933242798 -4.349999904632568,2.930000066757202 -3.9600000381469727,2.5399999618530273 C-3.9600000381469727,2.5399999618530273 -1.4199999570846558,0 -1.4199999570846558,0 C-1.4199999570846558,0 -3.9600000381469727,-2.5399999618530273 -3.9600000381469727,-2.5399999618530273 C-4.349999904632568,-2.930000066757202 -4.349999904632568,-3.569999933242798 -3.9600000381469727,-3.9600000381469727 C-3.569999933242798,-4.349999904632568 -2.930000066757202,-4.349999904632568 -2.5399999618530273,-3.9600000381469727 C-2.5399999618530273,-3.9600000381469727 0,-1.4199999570846558 0,-1.4199999570846558 C0,-1.4199999570846558 2.5399999618530273,-3.9600000381469727 2.5399999618530273,-3.9600000381469727 C2.930000066757202,-4.349999904632568 3.569999933242798,-4.349999904632568 3.9600000381469727,-3.9600000381469727 C4.349999904632568,-3.569999933242798 4.349999904632568,-2.930000066757202 3.9600000381469727,-2.5399999618530273 C3.9600000381469727,-2.5399999618530273 1.4199999570846558,0 1.4199999570846558,0 C1.4199999570846558,0 3.9600000381469727,2.5399999618530273 3.9600000381469727,2.5399999618530273z"/></g></g></g></g></svg>