<svg xmlns="http://www.w3.org/2000/svg" xmlns:xlink="http://www.w3.org/1999/xlink" viewBox="0 0 500 500" width="500" height="500" style="width: 100%; height: 100%; transform: translate3d(0px, 0px, 0px); content-visibility: visible;" preserveAspectRatio="xMidYMid meet"><defs><clipPath id="__lottie_element_16"><rect width="500" height="500" x="0" y="0"/></clipPath><clipPath id="__lottie_element_18"><path d="M0,0 L500,0 L500,500 L0,500z"/></clipPath></defs><g clip-path="url(#__lottie_element_16)"><g clip-path="url(#__lottie_element_18)" style="display: block;" transform="matrix(1,0,0,1,0,0)" opacity="1"><g class="primary design" style="display: none;" transform="matrix(1,0,0,1,250.0164337158203,250.0030059814453)" opacity="1"><g opacity="1" transform="matrix(1,0,0,1,0,0)"><path stroke-linecap="round" stroke-linejoin="round" fill-opacity="0" class="primary" stroke="rgb(0,0,0)" stroke-opacity="1" stroke-width="31.3" d=" M192.70899963378906,46.875 C192.70899963378906,100.83300018310547 151.66799926757812,145.20899963378906 98.95899963378906,150.41700744628906 C95.6259994506836,150.83399963378906 92.08300018310547,151.04200744628906 88.54199981689453,151.04200744628906 C88.54199981689453,151.04200744628906 -109.3759994506836,151.04200744628906 -109.3759994506836,151.04200744628906 C-155.41799926757812,151.04200744628906 -192.70899963378906,113.75 -192.70899963378906,67.70899963378906 C-192.70899963378906,44.58399963378906 -183.33299255371094,23.750999450683594 -168.33399963378906,8.75 C-162.91700744628906,3.3329999446868896 -156.8769989013672,-1.25 -150.2100067138672,-5 C-150.83399963378906,-8.543000221252441 -151.04200744628906,-12.083999633789062 -151.04200744628906,-15.625 C-151.04200744628906,-54.79199981689453 -120,-86.87699890136719 -81.04199981689453,-88.33399963378906 C-62.5,-125.62699890136719 -23.750999450683594,-151.04200744628906 20.83300018310547,-151.04200744628906 C80.83300018310547,-151.04200744628906 129.79200744628906,-105.20800018310547 134.79200744628906,-46.45899963378906 C145.00100708007812,-41.250999450683594 154.16799926757812,-34.58399963378906 162.0850067138672,-26.66699981689453 C181.04299926757812,-7.915999889373779 192.70899963378906,18.125 192.70899963378906,46.875z"/></g></g><g class="primary design" style="display: none;" transform="matrix(1,0,0,1,381.5324401855469,230.04701232910156)" opacity="1"><g opacity="1" transform="matrix(1,0,0,1,0,0)"><path stroke-linecap="round" stroke-linejoin="round" fill-opacity="0" class="primary" stroke="rgb(0,0,0)" stroke-opacity="1" stroke-width="31.3" d="M0 0"/></g></g><g class="primary design" style="display: none;" transform="matrix(1,0,0,1,189.09243774414062,166.66200256347656)" opacity="1"><g opacity="1" transform="matrix(1,0,0,1,0,0)"><path stroke-linecap="round" stroke-linejoin="round" fill-opacity="0" class="primary" stroke="rgb(0,0,0)" stroke-opacity="1" stroke-width="31.3" d=" M-20.360000610351562,-5.135000228881836 C-20.260000228881836,-5.144999980926514 -20.149999618530273,-5.144999980926514 -20.040000915527344,-5.144999980926514 C-19.56999969482422,-5.164999961853027 -19.100000381469727,-5.184999942779541 -18.6200008392334,-5.184999942779541 C-18.149999618530273,-5.204999923706055 -17.68000030517578,-5.204999923706055 -17.200000762939453,-5.204999923706055 C-3.496999979019165,-5.204999923706055 9.321999549865723,-1.4249999523162842 20.27199935913086,5.1519999504089355"/></g></g><g class="primary design" style="display: none;" transform="matrix(1,0,0,1,250.01243591308594,250)" opacity="1"><g opacity="1" transform="matrix(1,0,0,1,0,0)"><path stroke-linecap="round" stroke-linejoin="round" fill-opacity="0" class="primary" stroke="rgb(0,0,0)" stroke-opacity="1" stroke-width="31.3" d=" M127.00399780273438,6.6539998054504395 C132.77699279785156,-7.695000171661377 135.9219970703125,-24.97599983215332 135.25,-45.25"/></g></g><g class="primary design" style="display: none;" transform="matrix(1,0,0,1,250,250)" opacity="1"><g opacity="1" transform="matrix(1,0,0,1,0,0)"><path class="primary" fill="rgb(0,0,0)" fill-opacity="1" d=" M173.15499877929688,-37.72999954223633 C166.04200744628906,-44.84400177001953 158.0749969482422,-51.05099868774414 149.38999938964844,-56.25400161743164 C144.98500061035156,-85.41100311279297 130.8560028076172,-112.15299987792969 109.05799865722656,-132.2779998779297 C85.02300262451172,-154.468994140625 53.691001892089844,-166.68899536132812 20.836999893188477,-166.68899536132812 C-3.684999942779541,-166.68899536132812 -27.551000595092773,-159.85699462890625 -48.176998138427734,-146.93099975585938 C-65.78099822998047,-135.8990020751953 -80.37799835205078,-120.87699890136719 -90.7979965209961,-103.1520004272461 C-110.21800231933594,-100.40299987792969 -128.10899353027344,-91.2969970703125 -141.91400146484375,-76.9800033569336 C-157.89100646972656,-60.4109992980957 -166.68899536132812,-38.619998931884766 -166.68899536132812,-15.621999740600586 C-166.68899536132812,-14.756999969482422 -166.677001953125,-13.907999992370605 -166.656005859375,-13.074999809265137 C-171.19000244140625,-9.855999946594238 -175.45399475097656,-6.256999969482422 -179.39700317382812,-2.312999963760376 C-198.07200622558594,16.363000869750977 -208.3560028076172,41.231998443603516 -208.3560028076172,67.71199798583984 C-208.3560028076172,122.29199981689453 -163.95199584960938,166.69500732421875 -109.37200164794922,166.69500732421875 C-109.37200164794922,166.69500732421875 88.5459976196289,166.69500732421875 88.5459976196289,166.69500732421875 C92.71499633789062,166.69500732421875 96.80400085449219,166.4530029296875 100.70099639892578,165.9739990234375 C130.08099365234375,163.02099609375 157.23199462890625,149.35299682617188 177.17100524902344,127.47100067138672 C197.28500366210938,105.39800262451172 208.36300659179688,76.7760009765625 208.36300659179688,46.87799835205078 C208.36300659179688,14.77400016784668 195.83700561523438,-15.295999526977539 173.15499877929688,-37.72999954223633z M97.4229965209961,134.84500122070312 C97.28800201416016,134.85899353027344 97.15399932861328,134.87399291992188 97.01899719238281,134.89100646972656 C94.38200378417969,135.2209930419922 91.4520034790039,135.39500427246094 88.5459976196289,135.39500427246094 C88.5459976196289,135.39500427246094 -109.37200164794922,135.39500427246094 -109.37200164794922,135.39500427246094 C-146.6929931640625,135.39500427246094 -177.05599975585938,105.03299713134766 -177.05599975585938,67.71199798583984 C-177.05599975585938,49.59199905395508 -170.0279998779297,32.58300018310547 -157.26499938964844,19.819000244140625 C-152.88299560546875,15.437000274658203 -147.927001953125,11.675999641418457 -142.53399658203125,8.642999649047852 C-136.74400329589844,5.38700008392334 -133.64100646972656,-1.1699999570846558 -134.79299926757812,-7.711999893188477 C-135.1999969482422,-10.019000053405762 -135.38900756835938,-12.531999588012695 -135.38900756835938,-15.621999740600586 C-135.38900756835938,-46.47100067138672 -111.25900268554688,-71.53900146484375 -80.4540023803711,-72.69100189208984 C-79.7979965209961,-72.71600341796875 -79.1510009765625,-72.78600311279297 -78.51300048828125,-72.88999938964844 C-78.38200378417969,-72.88999938964844 -78.25299835205078,-72.89299774169922 -78.12000274658203,-72.89299774169922 C-67.69599914550781,-72.89299774169922 -57.500999450683594,-70.06999969482422 -48.63600158691406,-64.72899627685547 C-46.10900115966797,-63.20600128173828 -43.32400131225586,-62.48099899291992 -40.57400131225586,-62.48099899291992 C-35.268001556396484,-62.48099899291992 -30.091999053955078,-65.18099975585938 -27.15399932861328,-70.05699920654297 C-22.694000244140625,-77.45999908447266 -25.079999923706055,-87.0780029296875 -32.483001708984375,-91.53800201416016 C-39.2869987487793,-95.63800048828125 -46.59199905395508,-98.7770004272461 -54.189998626708984,-100.90499877929688 C-35.88800048828125,-122.58100128173828 -8.753000259399414,-135.38999938964844 20.836999893188477,-135.38999938964844 C72.53500366210938,-135.38999938964844 114.822998046875,-96.58699798583984 119.20099639892578,-45.130001068115234 C119.26599884033203,-44.369998931884766 119.39099884033203,-43.624000549316406 119.56199645996094,-42.89400100708008 C119.6969985961914,-40.74399948120117 119.77899932861328,-38.58599853515625 119.77899932861328,-36.4630012512207 C119.77899932861328,-24.038999557495117 117.51000213623047,-11.932999610900879 113.03399658203125,-0.48100000619888306 C109.88800048828125,7.568999767303467 113.86299896240234,16.64699935913086 121.91300201416016,19.792999267578125 C123.78500366210938,20.52400016784668 125.70999908447266,20.871000289916992 127.60600280761719,20.871000289916992 C133.86199951171875,20.871000289916992 139.77200317382812,17.093000411987305 142.18699645996094,10.913999557495117 C145.71099853515625,1.8980000019073486 148.18800354003906,-7.420000076293945 149.6199951171875,-16.94300079345703 C150.10899353027344,-16.47599983215332 150.60400390625,-16.016000747680664 151.08299255371094,-15.536999702453613 C167.83599853515625,1.0329999923706055 177.06199645996094,23.198999404907227 177.06199645996094,46.87799835205078 C177.06199645996094,92.54100036621094 142.8249969482422,130.35899353027344 97.4229965209961,134.84500122070312z"/></g></g><g class="primary design" style="display: block;" transform="matrix(1,0,0,1,250,250)" opacity="1"><g opacity="1" transform="matrix(1,0,0,1,0,0)"><path class="primary" fill="rgb(0,0,0)" fill-opacity="1" d=" M173.15499877929688,-37.72999954223633 C166.04200744628906,-44.84400177001953 158.0749969482422,-51.05099868774414 149.38999938964844,-56.25400161743164 C144.98500061035156,-85.41100311279297 130.8560028076172,-112.15299987792969 109.05799865722656,-132.2779998779297 C85.02300262451172,-154.468994140625 53.691001892089844,-166.68899536132812 20.836999893188477,-166.68899536132812 C-3.684999942779541,-166.68899536132812 -27.551000595092773,-159.85699462890625 -48.176998138427734,-146.93099975585938 C-65.78099822998047,-135.8990020751953 -80.37799835205078,-120.87699890136719 -90.7979965209961,-103.1520004272461 C-110.21800231933594,-100.40299987792969 -128.10899353027344,-91.2969970703125 -141.91400146484375,-76.9800033569336 C-157.89100646972656,-60.4109992980957 -166.68899536132812,-38.619998931884766 -166.68899536132812,-15.621999740600586 C-166.68899536132812,-14.756999969482422 -166.677001953125,-13.907999992370605 -166.656005859375,-13.074999809265137 C-171.19000244140625,-9.855999946594238 -175.45399475097656,-6.256999969482422 -179.39700317382812,-2.312999963760376 C-198.07200622558594,16.363000869750977 -208.3560028076172,41.231998443603516 -208.3560028076172,67.71199798583984 C-208.3560028076172,122.29199981689453 -163.95199584960938,166.69500732421875 -109.37200164794922,166.69500732421875 C-109.37200164794922,166.69500732421875 88.5459976196289,166.69500732421875 88.5459976196289,166.69500732421875 C92.71499633789062,166.69500732421875 96.80400085449219,166.4530029296875 100.70099639892578,165.9739990234375 C130.08099365234375,163.02099609375 157.23199462890625,149.35299682617188 177.17100524902344,127.47100067138672 C197.28500366210938,105.39800262451172 208.36300659179688,76.7760009765625 208.36300659179688,46.87799835205078 C208.36300659179688,14.77400016784668 195.83700561523438,-15.295999526977539 173.15499877929688,-37.72999954223633z M97.4229965209961,134.84500122070312 C97.28800201416016,134.85899353027344 97.15399932861328,134.87399291992188 97.01899719238281,134.89100646972656 C94.38200378417969,135.2209930419922 91.4520034790039,135.39500427246094 88.5459976196289,135.39500427246094 C88.5459976196289,135.39500427246094 -109.37200164794922,135.39500427246094 -109.37200164794922,135.39500427246094 C-146.6929931640625,135.39500427246094 -177.05599975585938,105.03299713134766 -177.05599975585938,67.71199798583984 C-177.05599975585938,49.59199905395508 -170.0279998779297,32.58300018310547 -157.26499938964844,19.819000244140625 C-152.88299560546875,15.437000274658203 -147.927001953125,11.675999641418457 -142.53399658203125,8.642999649047852 C-136.74400329589844,5.38700008392334 -133.64100646972656,-1.1699999570846558 -134.79299926757812,-7.711999893188477 C-135.1999969482422,-10.019000053405762 -135.38900756835938,-12.531999588012695 -135.38900756835938,-15.621999740600586 C-135.38900756835938,-46.47100067138672 -111.25900268554688,-71.53900146484375 -80.4540023803711,-72.69100189208984 C-79.7979965209961,-72.71600341796875 -79.1510009765625,-72.78600311279297 -78.51300048828125,-72.88999938964844 C-78.38200378417969,-72.88999938964844 -78.25299835205078,-72.89299774169922 -78.12000274658203,-72.89299774169922 C-67.69599914550781,-72.89299774169922 -57.500999450683594,-70.06999969482422 -48.63600158691406,-64.72899627685547 C-46.10900115966797,-63.20600128173828 -43.32400131225586,-62.48099899291992 -40.57400131225586,-62.48099899291992 C-35.268001556396484,-62.48099899291992 -30.091999053955078,-65.18099975585938 -27.15399932861328,-70.05699920654297 C-22.694000244140625,-77.45999908447266 -25.079999923706055,-87.0780029296875 -32.483001708984375,-91.53800201416016 C-39.2869987487793,-95.63800048828125 -46.59199905395508,-98.7770004272461 -54.189998626708984,-100.90499877929688 C-35.88800048828125,-122.58100128173828 -8.753000259399414,-135.38999938964844 20.836999893188477,-135.38999938964844 C72.53500366210938,-135.38999938964844 114.822998046875,-96.58699798583984 119.20099639892578,-45.130001068115234 C119.26599884033203,-44.369998931884766 119.39099884033203,-43.624000549316406 119.56199645996094,-42.89400100708008 C119.6969985961914,-40.74399948120117 119.77899932861328,-38.58599853515625 119.77899932861328,-36.4630012512207 C119.77899932861328,-24.038999557495117 117.51000213623047,-11.932999610900879 113.03399658203125,-0.48100000619888306 C109.88800048828125,7.568999767303467 113.86299896240234,16.64699935913086 121.91300201416016,19.792999267578125 C123.78500366210938,20.52400016784668 125.70999908447266,20.871000289916992 127.60600280761719,20.871000289916992 C133.86199951171875,20.871000289916992 139.77200317382812,17.093000411987305 142.18699645996094,10.913999557495117 C145.71099853515625,1.8980000019073486 148.18800354003906,-7.420000076293945 149.6199951171875,-16.94300079345703 C150.10899353027344,-16.47599983215332 150.60400390625,-16.016000747680664 151.08299255371094,-15.536999702453613 C167.83599853515625,1.0329999923706055 177.06199645996094,23.198999404907227 177.06199645996094,46.87799835205078 C177.06199645996094,92.54100036621094 142.8249969482422,130.35899353027344 97.4229965209961,134.84500122070312z"/></g></g></g></g></svg>