<svg xmlns="http://www.w3.org/2000/svg" xmlns:xlink="http://www.w3.org/1999/xlink" viewBox="0 0 500 500" width="500" height="500" style="width: 100%; height: 100%; transform: translate3d(0px, 0px, 0px); content-visibility: visible;" preserveAspectRatio="xMidYMid meet"><defs><clipPath id="__lottie_element_2"><rect width="500" height="500" x="0" y="0"/></clipPath><clipPath id="__lottie_element_4"><path d="M0,0 L500,0 L500,500 L0,500z"/></clipPath></defs><g clip-path="url(#__lottie_element_2)"><g clip-path="url(#__lottie_element_4)" style="display: block;" transform="matrix(1,0,0,1,0,0)" opacity="1"><g class="primary design" style="display: block;" transform="matrix(20.829999923706055,0,0,20.829999923706055,395.8089904785156,249.9929962158203)" opacity="1"><g opacity="1" transform="matrix(1,0,0,1,0,0)"><path class="primary" fill="rgb(0,0,0)" fill-opacity="1" d=" M-1.215000033378601,-5.61899995803833 C-1.555999994277954,-6.052000045776367 -2.183000087738037,-6.129000186920166 -2.61899995803833,-5.785999774932861 C-3.052999973297119,-5.443999767303467 -3.127000093460083,-4.815000057220459 -2.7850000858306885,-4.38100004196167 C-2.7850000858306885,-4.38100004196167 0.7200000286102295,0.0689999982714653 0.7200000286102295,0.0689999982714653 C0.7200000286102295,0.0689999982714653 -2.7760000228881836,4.36899995803833 -2.7760000228881836,4.36899995803833 C-3.124000072479248,4.797999858856201 -3.059999942779541,5.427999973297119 -2.63100004196167,5.776000022888184 C-2.444999933242798,5.927000045776367 -2.2230000495910645,6 -2.000999927520752,6 C-1.7100000381469727,6 -1.4220000505447388,5.874000072479248 -1.2239999771118164,5.63100004196167 C-1.2239999771118164,5.63100004196167 2.7760000228881836,0.7099999785423279 2.7760000228881836,0.7099999785423279 C3.071000099182129,0.34700000286102295 3.075000047683716,-0.1720000058412552 2.7850000858306885,-0.5389999747276306 C2.7850000858306885,-0.5389999747276306 -1.215000033378601,-5.61899995803833 -1.215000033378601,-5.61899995803833z"/></g></g><g class="primary design" style="display: block;" transform="matrix(20.829999923706055,0,0,20.829999923706055,104.18699645996094,249.9980010986328)" opacity="1"><g opacity="1" transform="matrix(1,0,0,1,0,0)"><path class="primary" fill="rgb(0,0,0)" fill-opacity="1" d=" M2.63100004196167,-5.776000022888184 C2.203000068664551,-6.124000072479248 1.5740000009536743,-6.059000015258789 1.2239999771118164,-5.63100004196167 C1.2239999771118164,-5.63100004196167 -2.7760000228881836,-0.7099999785423279 -2.7760000228881836,-0.7099999785423279 C-3.071000099182129,-0.34700000286102295 -3.075000047683716,0.1720000058412552 -2.7850000858306885,0.5389999747276306 C-2.7850000858306885,0.5389999747276306 1.215000033378601,5.61899995803833 1.215000033378601,5.61899995803833 C1.4119999408721924,5.86899995803833 1.7050000429153442,6 2.000999927520752,6 C2.2170000076293945,6 2.434999942779541,5.931000232696533 2.61899995803833,5.785999774932861 C3.052999973297119,5.443999767303467 3.127000093460083,4.815000057220459 2.7850000858306885,4.38100004196167 C2.7850000858306885,4.38100004196167 -0.7200000286102295,-0.0689999982714653 -0.7200000286102295,-0.0689999982714653 C-0.7200000286102295,-0.0689999982714653 2.7760000228881836,-4.36899995803833 2.7760000228881836,-4.36899995803833 C3.124000072479248,-4.797999858856201 3.059999942779541,-5.427999973297119 2.63100004196167,-5.776000022888184z"/></g></g><g class="primary design" style="display: block;" transform="matrix(20.829999923706055,0,0,20.829999923706055,249.9980010986328,249.99899291992188)" opacity="1"><g opacity="1" transform="matrix(1,0,0,1,0,0)"><path class="primary" fill="rgb(0,0,0)" fill-opacity="1" d=" M1.1959999799728394,-5.980999946594238 C0.6510000228881836,-6.0879998207092285 0.12700000405311584,-5.73799991607666 0.019999999552965164,-5.196000099182129 C0.019999999552965164,-5.196000099182129 -1.9800000190734863,4.803999900817871 -1.9800000190734863,4.803999900817871 C-2.0880000591278076,5.3460001945495605 -1.7369999885559082,5.872000217437744 -1.1959999799728394,5.980000019073486 C-1.1299999952316284,5.993000030517578 -1.0640000104904175,6 -0.9990000128746033,6 C-0.5320000052452087,6 -0.11500000208616257,5.671000003814697 -0.019999999552965164,5.196000099182129 C-0.019999999552965164,5.196000099182129 1.9800000190734863,-4.803999900817871 1.9800000190734863,-4.803999900817871 C2.0880000591278076,-5.3460001945495605 1.7369999885559082,-5.873000144958496 1.1959999799728394,-5.980999946594238z"/></g></g></g></g></svg>