<svg xmlns="http://www.w3.org/2000/svg" xmlns:xlink="http://www.w3.org/1999/xlink" viewBox="0 0 240 240" width="240" height="240" style="width: 100%; height: 100%; transform: translate3d(0px, 0px, 0px); content-visibility: visible;" preserveAspectRatio="xMidYMid meet"><defs><clipPath id="__lottie_element_16"><rect width="240" height="240" x="0" y="0"/></clipPath><clipPath id="__lottie_element_18"><path d="M0,0 L240,0 L240,240 L0,240z"/></clipPath></defs><g clip-path="url(#__lottie_element_16)"><g clip-path="url(#__lottie_element_18)" style="display: block;" transform="matrix(1,0,0,1,0,0)" opacity="1"><g style="display: block;" transform="matrix(1,0,0,1,120,120)" opacity="1"><g opacity="1" transform="matrix(1,0,0,1,0,0)"><path class="primary" fill="rgb(0,0,0)" fill-opacity="1" d=" M90,17.5 C90,13.357999801635742 86.64199829101562,10 82.5,10 C78.35800170898438,10 75,13.357999801635742 75,17.5 C75,17.5 75,62.5 75,62.5 C75,69.35800170898438 69.35800170898438,75 62.5,75 C62.5,75 -62.5,75 -62.5,75 C-69.35800170898438,75 -75,69.35800170898438 -75,62.5 C-75,62.5 -75,17.5 -75,17.5 C-75,13.357999801635742 -78.35800170898438,10 -82.5,10 C-86.64199829101562,10 -90,13.357999801635742 -90,17.5 C-90,17.5 -90,62.5 -90,62.5 C-90,77.64199829101562 -77.64199829101562,90 -62.5,90 C-62.5,90 62.5,90 62.5,90 C77.64199829101562,90 90,77.64199829101562 90,62.5 C90,62.5 90,17.5 90,17.5z"/></g></g><g style="display: block;" transform="matrix(1,0,0,1,120,120)" opacity="1"><g opacity="1" transform="matrix(1,0,0,1,0,0)"><path class="primary" fill="rgb(0,0,0)" fill-opacity="1" d=" M7.5,-82.5 C7.5,-86.64199829101562 4.142000198364258,-90 0,-90 C-4.142000198364258,-90 -7.5,-86.64199829101562 -7.5,-82.5 C-7.5,-82.5 -7.5,-9.531000137329102 -7.5,-9.531000137329102 C-7.5,-9.531000137329102 -39.707000732421875,-17.295000076293945 -39.707000732421875,-17.295000076293945 C-42.95500183105469,-18.076000213623047 -46.33599853515625,-16.614999771118164 -47.987998962402344,-13.711000442504883 C-49.63800048828125,-10.807999610900879 -49.16600036621094,-7.1579999923706055 -46.83599853515625,-4.765999794006348 C-46.83599853515625,-4.765999794006348 -5.370999813079834,37.73400115966797 -5.370999813079834,37.73400115966797 C-5.370999813079834,37.73400115966797 -5.302999973297119,37.803001403808594 -5.302999973297119,37.803001403808594 C-4.390999794006348,38.71500015258789 -3.2360000610351562,39.36000061035156 -1.9529999494552612,39.707000732421875 C-1.7990000247955322,39.749000549316406 -1.6510000228881836,39.8120002746582 -1.49399995803833,39.84400177001953 C-1.0420000553131104,39.93600082397461 -0.5759999752044678,39.98400115966797 -0.09799999743700027,39.9900016784668 C-0.09799999743700027,39.9900016784668 -0.04899999871850014,40 -0.04899999871850014,40 C-0.04899999871850014,40 -0.039000000804662704,39.9900016784668 -0.039000000804662704,39.9900016784668 C-0.039000000804662704,39.9900016784668 0,40 0,40 C0.44999998807907104,40 0.8889999985694885,39.94900131225586 1.3179999589920044,39.87300109863281 C1.3730000257492065,39.862998962402344 1.4290000200271606,39.85499954223633 1.4839999675750732,39.84400177001953 C2.9590001106262207,39.54800033569336 4.2789998054504395,38.82699966430664 5.302999973297119,37.803001403808594 C5.302999973297119,37.803001403808594 47.803001403808594,-4.697000026702881 47.803001403808594,-4.697000026702881 C50.172000885009766,-7.066999912261963 50.683998107910156,-10.725000381469727 49.053001403808594,-13.652000427246094 C47.422000885009766,-16.57900047302246 44.04199981689453,-18.070999145507812 40.78099822998047,-17.30500030517578 C40.78099822998047,-17.30500030517578 7.5,-9.482000350952148 7.5,-9.482000350952148 C7.5,-9.482000350952148 7.5,-82.5 7.5,-82.5z"/></g></g></g></g></svg>