<svg xmlns="http://www.w3.org/2000/svg" xmlns:xlink="http://www.w3.org/1999/xlink" viewBox="0 0 240 240" width="240" height="240" style="width: 100%; height: 100%; transform: translate3d(0px, 0px, 0px); content-visibility: visible;" preserveAspectRatio="xMidYMid meet"><defs><clipPath id="__lottie_element_2"><rect width="240" height="240" x="0" y="0"/></clipPath><clipPath id="__lottie_element_4"><path d="M0,0 L240,0 L240,240 L0,240z"/></clipPath><g id="__lottie_element_11"><g style="display: none;" transform="matrix(1,0,0,1,120.14775085449219,132.5)" opacity="1"><g opacity="1" transform="matrix(1,0,0,1,0,0)"><path fill="rgb(255,0,0)" fill-opacity="1" d=" M112.17522430419922,-33.507591247558594 C112.17522430419922,-51.433589935302734 97.60122680664062,-66.0075912475586 79.67522430419922,-66.0075912475586 C79.67522430419922,-66.0075912475586 -95.32477569580078,-66.0075912475586 -95.32477569580078,-66.0075912475586 C-107.75077819824219,-66.0075912475586 -116.94751739501953,-55.998146057128906 -117.82477569580078,-43.507591247558594 C-117.82477569580078,-43.507591247558594 -124.3007583618164,50 -124.3007583618164,50 C-124.3007583618164,67.9260025024414 -109.72676086425781,82.5 -91.8007583618164,82.5 C-91.8007583618164,82.5 73.1992416381836,82.5 73.1992416381836,82.5 C91.125244140625,82.5 105.6992416381836,67.9260025024414 105.6992416381836,50 C105.6992416381836,50 112.17522430419922,-33.507591247558594 112.17522430419922,-33.507591247558594z"/></g></g></g><filter id="__lottie_element_17" filterUnits="objectBoundingBox" x="0%" y="0%" width="100%" height="100%"><feComponentTransfer in="SourceGraphic"><feFuncA type="table" tableValues="1.0 0.0"/></feComponentTransfer></filter><mask id="__lottie_element_11_2" mask-type="alpha" maskUnits="userSpaceOnUse"><g filter="url(#__lottie_element_17)"><rect width="240" height="240" x="0" y="0" fill="#ffffff" opacity="0"/><use a0:href="#__lottie_element_11" xmlns:a0="http://www.w3.org/1999/xlink"/></g></mask></defs><g clip-path="url(#__lottie_element_2)"><g clip-path="url(#__lottie_element_4)" style="display: block;" transform="matrix(1,0,0,1,0,0)" opacity="1"><g style="display: block;" mask="url(#__lottie_element_11_2)"><g transform="matrix(1,0,0,1,120,120)" opacity="1"><g opacity="1" transform="matrix(1,0,0,1,0,0)"><path class="primary" fill="rgb(0,0,0)" fill-opacity="1" d=" M-13.798999786376953,-76.39700317382812 C-15.15999984741211,-78.63400268554688 -17.589000701904297,-80 -20.207000732421875,-80 C-20.207000732421875,-80 -92.5,-80 -92.5,-80 C-96.64199829101562,-80 -100,-76.64199829101562 -100,-72.5 C-100,-72.5 -100,62.5 -100,62.5 C-100,72.14199829101562 -92.14199829101562,80 -82.5,80 C-82.5,80 82.5,80 82.5,80 C92.14199829101562,80 100,72.14199829101562 100,62.5 C100,62.5 100,-37.5 100,-37.5 C100,-47.141998291015625 92.14199829101562,-55 82.5,-55 C82.5,-55 -0.7829999923706055,-55 -0.7829999923706055,-55 C-0.7829999923706055,-55 -13.798999786376953,-76.39700317382812 -13.798999786376953,-76.39700317382812z"/></g></g></g><g style="display: block;" transform="matrix(1,0,0,1,120,120)" opacity="1"><path class="primary" fill="rgb(0,0,0)" fill-opacity="1" d=" M92.5,62.5 C92.5,62.5 92.5,-37.5 92.5,-37.5 C92.5,-43 88,-47.5 82.5,-47.5 C82.5,-47.5 -90.41999816894531,-47.5 -90.41999816894531,-47.5 C-90.41999816894531,-47.5 -92.5,-47.5 -92.5,-47.5 C-92.5,-47.5 -92.5,-42.79100036621094 -92.5,-42.79100036621094 C-92.5,-42.79100036621094 -92.5,62.5 -92.5,62.5 C-92.5,68 -88,72.5 -82.5,72.5 C-82.5,72.5 82.5,72.5 82.5,72.5 C88,72.5 92.5,68 92.5,62.5z"/><g opacity="1" transform="matrix(1,0,0,1,0,0)"><path stroke-linecap="round" stroke-linejoin="round" fill-opacity="0" class="primary" stroke="rgb(0,0,0)" stroke-opacity="1" stroke-width="15" d=" M92.5,62.5 C92.5,62.5 92.5,-37.5 92.5,-37.5 C92.5,-43 88,-47.5 82.5,-47.5 C82.5,-47.5 -90.41999816894531,-47.5 -90.41999816894531,-47.5 C-90.41999816894531,-47.5 -92.5,-47.5 -92.5,-47.5 C-92.5,-47.5 -92.5,-42.79100036621094 -92.5,-42.79100036621094 C-92.5,-42.79100036621094 -92.5,62.5 -92.5,62.5 C-92.5,68 -88,72.5 -82.5,72.5 C-82.5,72.5 82.5,72.5 82.5,72.5 C88,72.5 92.5,68 92.5,62.5z"/></g></g></g></g></svg>