<svg xmlns="http://www.w3.org/2000/svg" xmlns:xlink="http://www.w3.org/1999/xlink" viewBox="0 0 240 240" width="240" height="240" style="width: 100%; height: 100%; transform: translate3d(0px, 0px, 0px); content-visibility: visible;" preserveAspectRatio="xMidYMid meet"><defs><clipPath id="__lottie_element_2"><rect width="240" height="240" x="0" y="0"/></clipPath><clipPath id="__lottie_element_4"><path d="M0,0 L240,0 L240,240 L0,240z"/></clipPath></defs><g clip-path="url(#__lottie_element_2)"><g clip-path="url(#__lottie_element_4)" style="display: block;" transform="matrix(1,0,0,1,0,0)" opacity="1"><g style="display: none;" transform="matrix(1,0,0,1,120,124.79399871826172)" opacity="1"><path class="primary" fill="rgb(18,19,49)" fill-opacity="1" d=" M-11.405250549316406,-69.46745300292969 C-6.339991569519043,-64.40185546875 -2.1613900661468506,-58.444496154785156 -0.05687545984983444,-51.75484848022461 C2.1329543590545654,-58.307979583740234 6.337991714477539,-64.40452575683594 11.405250549316406,-69.47178649902344 C31.703289031982422,-89.76982116699219 64.61363983154297,-89.76982116699219 84.91167449951172,-69.47178649902344 C104.78602600097656,-49.597434997558594 105.20038604736328,-17.631799697875977 86.1557388305664,2.747243881225586 C86.1557388305664,2.747243881225586 7.169367790222168,81.78228759765625 7.169367790222168,81.78228759765625 C3.210165023803711,85.74149322509766 -3.2098305225372314,85.74149322509766 -7.169033050537109,81.78228759765625 C-33.505714416503906,55.443607330322266 -59.84206008911133,29.103925704956055 -86.17974090576172,2.765578269958496 C-86.17974090576172,2.765578269958496 -86.1607437133789,2.7469091415405273 -86.1607437133789,2.7469091415405273 C-105.20138549804688,-17.63213348388672 -104.78436279296875,-49.59443283081055 -84.91134643554688,-69.46745300292969 C-64.6133041381836,-89.76548767089844 -31.70295524597168,-89.76615142822266 -11.405250549316406,-69.46745300292969z"/><g opacity="1" transform="matrix(1,0,0,1,0,0)"><path stroke-linecap="round" stroke-linejoin="round" fill-opacity="0" class="primary" stroke="rgb(18,19,49)" stroke-opacity="1" stroke-width="15" d=" M-11.405250549316406,-69.46745300292969 C-6.339991569519043,-64.40185546875 -2.1613900661468506,-58.444496154785156 -0.05687545984983444,-51.75484848022461 C2.1329543590545654,-58.307979583740234 6.337991714477539,-64.40452575683594 11.405250549316406,-69.47178649902344 C31.703289031982422,-89.76982116699219 64.61363983154297,-89.76982116699219 84.91167449951172,-69.47178649902344 C104.78602600097656,-49.597434997558594 105.20038604736328,-17.631799697875977 86.1557388305664,2.747243881225586 C86.1557388305664,2.747243881225586 7.169367790222168,81.78228759765625 7.169367790222168,81.78228759765625 C3.210165023803711,85.74149322509766 -3.2098305225372314,85.74149322509766 -7.169033050537109,81.78228759765625 C-33.505714416503906,55.443607330322266 -59.84206008911133,29.103925704956055 -86.17974090576172,2.765578269958496 C-86.17974090576172,2.765578269958496 -86.1607437133789,2.7469091415405273 -86.1607437133789,2.7469091415405273 C-105.20138549804688,-17.63213348388672 -104.78436279296875,-49.59443283081055 -84.91134643554688,-69.46745300292969 C-64.6133041381836,-89.76548767089844 -31.70295524597168,-89.76615142822266 -11.405250549316406,-69.46745300292969z"/></g></g><g style="display: block;" transform="matrix(1,0,0,1,120,124.79399871826172)" opacity="1"><g opacity="1" transform="matrix(1,0,0,1,0,0)"><path class="primary" fill="rgb(0,0,0)" fill-opacity="1" d=" M-11.24899959564209,-68.54399871826172 C-6.252999782562256,-63.54800033569336 -2.503000020980835,-57.7760009765625 -0.0010000000474974513,-51.617000579833984 C2.502000093460083,-57.77799987792969 6.250999927520752,-63.54999923706055 11.24899959564209,-68.5479965209961 C31.268999099731445,-88.56800079345703 63.729000091552734,-88.56800079345703 83.7490005493164,-68.5479965209961 C103.35099792480469,-48.94599914550781 103.76000213623047,-17.417999267578125 84.97599792480469,2.681999921798706 C84.97599792480469,2.681999921798706 7.071000099182129,80.63500213623047 7.071000099182129,80.63500213623047 C3.1659998893737793,84.54000091552734 -3.1659998893737793,84.54000091552734 -7.071000099182129,80.63500213623047 C-33.047000885009766,54.65700149536133 -59.02299880981445,28.67799949645996 -85,2.700000047683716 C-85,2.700000047683716 -84.98100280761719,2.681999921798706 -84.98100280761719,2.681999921798706 C-103.76100158691406,-17.417999267578125 -103.3499984741211,-48.94300079345703 -83.7490005493164,-68.54399871826172 C-63.729000091552734,-88.56400299072266 -31.268999099731445,-88.56500244140625 -11.24899959564209,-68.54399871826172z"/></g></g><g style="display: none;" transform="matrix(1,0,0,1,120,124.79399871826172)" opacity="1"><g opacity="1" transform="matrix(1,0,0,1,0,0)"><path class="primary" fill="rgb(0,0,0)" fill-opacity="1" d=" M-11.24899959564209,-68.54399871826172 C-6.252999782562256,-63.54800033569336 -2.503000020980835,-57.7760009765625 -0.0010000000474974513,-51.617000579833984 C2.502000093460083,-57.77799987792969 6.250999927520752,-63.54999923706055 11.24899959564209,-68.5479965209961 C31.268999099731445,-88.56800079345703 63.729000091552734,-88.56800079345703 83.7490005493164,-68.5479965209961 C103.35099792480469,-48.94599914550781 103.76000213623047,-17.417999267578125 84.97599792480469,2.681999921798706 C84.97599792480469,2.681999921798706 7.071000099182129,80.63500213623047 7.071000099182129,80.63500213623047 C3.1659998893737793,84.54000091552734 -3.1659998893737793,84.54000091552734 -7.071000099182129,80.63500213623047 C-33.047000885009766,54.65700149536133 -59.02299880981445,28.67799949645996 -85,2.700000047683716 C-85,2.700000047683716 -84.98100280761719,2.681999921798706 -84.98100280761719,2.681999921798706 C-103.76100158691406,-17.417999267578125 -103.3499984741211,-48.94300079345703 -83.7490005493164,-68.54399871826172 C-63.729000091552734,-88.56400299072266 -31.268999099731445,-88.56500244140625 -11.24899959564209,-68.54399871826172z"/></g></g><g style="display: block;" transform="matrix(1,0,0,1,120,124.79399871826172)" opacity="1"><g opacity="1" transform="matrix(1,0,0,1,0,0)"><path class="primary" fill="rgb(0,0,0)" fill-opacity="1" d=" M16.552000045776367,-63.244998931884766 C33.643001556396484,-80.33599853515625 61.35499954223633,-80.33599853515625 78.44599914550781,-63.244998931884766 C95.15899658203125,-46.53200149536133 95.5270004272461,-19.663999557495117 79.55599975585938,-2.505000114440918 C79.55599975585938,-2.505000114440918 1.7680000066757202,75.33200073242188 1.7680000066757202,75.33200073242188 C0.8529999852180481,76.24700164794922 -0.5960000157356262,76.30400085449219 -1.5779999494552612,75.50299835205078 C-1.5779999494552612,75.50299835205078 -1.7669999599456787,75.33200073242188 -1.7669999599456787,75.33200073242188 C-27.597000122070312,49.5 -53.426998138427734,23.66699981689453 -79.25800323486328,-2.1649999618530273 C-79.33599853515625,-2.256999969482422 -79.41699981689453,-2.3499999046325684 -79.5009994506836,-2.438999891281128 C-95.52999877929688,-19.594999313354492 -95.1780014038086,-46.507999420166016 -78.44599914550781,-63.2400016784668 C-61.35499954223633,-80.33100128173828 -33.643001556396484,-80.33100128173828 -16.552000045776367,-63.2400016784668 C-12.277000427246094,-58.96500015258789 -9.081999778747559,-54.04100036621094 -6.949999809265137,-48.79399871826172 C-5.801000118255615,-45.965999603271484 -3.052999973297119,-44.117000579833984 -0.0010000000474974513,-44.117000579833984 C3.0510001182556152,-44.117000579833984 5.798999786376953,-45.965999603271484 6.947999954223633,-48.79399871826172 C9.079999923706055,-54.042999267578125 12.276000022888184,-58.96900177001953 16.552000045776367,-63.244998931884766z M89.052001953125,-73.85199737548828 C66.10299682617188,-96.8010025024414 28.895000457763672,-96.8010025024414 5.946000099182129,-73.85199737548828 C3.755000114440918,-71.66100311279297 1.7719999551773071,-69.33699798583984 -0.003000000026077032,-66.90699768066406 C-1.7760000228881836,-69.33499908447266 -3.756999969482422,-71.65799713134766 -5.946000099182129,-73.84700012207031 C-28.895000457763672,-96.7959976196289 -66.10299682617188,-96.7959976196289 -89.052001953125,-73.84700012207031 C-111.36699676513672,-51.53200149536133 -111.98400115966797,-15.73900032043457 -90.9020004272461,7.324999809265137 C-90.71800231933594,7.559999942779541 -90.51899719238281,7.788000106811523 -90.3030014038086,8.003999710083008 C-64.32599639892578,33.98099899291992 -38.349998474121094,59.959999084472656 -12.37399959564209,85.93800354003906 C-5.539999961853027,92.77200317382812 5.539999961853027,92.77200317382812 12.37399959564209,85.93800354003906 C12.37399959564209,85.93800354003906 90.28199768066406,7.982999801635742 90.28199768066406,7.982999801635742 C90.34100341796875,7.923999786376953 90.39900207519531,7.863999843597412 90.45600128173828,7.802999973297119 C111.99099731445312,-15.241000175476074 111.52300262451172,-51.38100051879883 89.052001953125,-73.85199737548828z"/></g></g></g></g></svg>