<svg xmlns="http://www.w3.org/2000/svg" xmlns:xlink="http://www.w3.org/1999/xlink" viewBox="0 0 240 240" width="240" height="240" style="width: 100%; height: 100%; transform: translate3d(0px, 0px, 0px); content-visibility: visible;" preserveAspectRatio="xMidYMid meet"><defs><clipPath id="__lottie_element_2"><rect width="240" height="240" x="0" y="0"/></clipPath><clipPath id="__lottie_element_4"><path d="M0,0 L240,0 L240,240 L0,240z"/></clipPath><g id="__lottie_element_27"><g style="display: none;" transform="matrix(1,0,0,1,120,134.5240020751953)" opacity="1"><g opacity="1" transform="matrix(1,0,0,1,0,0)"><path stroke-linecap="round" stroke-linejoin="round" fill-opacity="0" class="primary" stroke="rgb(255,0,0)" stroke-opacity="1" stroke-width="15" d=" M22.5,20.479999542236328 C22.5,20.479999542236328 -22.5,20.479999542236328 -22.5,20.479999542236328"/></g></g></g><filter id="__lottie_element_30" filterUnits="objectBoundingBox" x="0%" y="0%" width="100%" height="100%"><feComponentTransfer in="SourceGraphic"><feFuncA type="table" tableValues="1.0 0.0"/></feComponentTransfer></filter><mask id="__lottie_element_27_2" mask-type="alpha" maskUnits="userSpaceOnUse"><g filter="url(#__lottie_element_30)"><rect width="240" height="240" x="0" y="0" fill="#ffffff" opacity="0"/><use a0:href="#__lottie_element_27" xmlns:a0="http://www.w3.org/1999/xlink"/></g></mask></defs><g clip-path="url(#__lottie_element_2)"><g clip-path="url(#__lottie_element_4)" style="display: block;" transform="matrix(1,0,0,1,0,0)" opacity="1"><g style="display: block;" transform="matrix(1,0,0,1,120,117.0199966430664)" opacity="1"><g opacity="1" transform="matrix(1,0,0,1,0,0)"><path class="primary" fill="rgb(0,0,0)" fill-opacity="1" d=" M8.730999946594238,-90.64700317382812 C3.3259999752044678,-93.75900268554688 -3.3259999752044678,-93.75900268554688 -8.730999946594238,-90.64700317382812 C-8.730999946594238,-90.64700317382812 -81.23100280761719,-48.90399932861328 -81.23100280761719,-48.90399932861328 C-86.65599822998047,-45.78099822998047 -90,-39.99800109863281 -90,-33.737998962402344 C-90,-33.737998962402344 -90,75.4800033569336 -90,75.4800033569336 C-90,85.1449966430664 -82.16500091552734,92.9800033569336 -72.5,92.9800033569336 C-72.5,92.9800033569336 -37.5,92.9800033569336 -37.5,92.9800033569336 C-27.834999084472656,92.9800033569336 -20,85.1449966430664 -20,75.4800033569336 C-20,75.4800033569336 -20,22.979999542236328 -20,22.979999542236328 C-20,22.979999542236328 20,22.979999542236328 20,22.979999542236328 C20,22.979999542236328 20,75.4800033569336 20,75.4800033569336 C20,85.1449966430664 27.834999084472656,92.9800033569336 37.5,92.9800033569336 C37.5,92.9800033569336 72.5,92.9800033569336 72.5,92.9800033569336 C82.16500091552734,92.9800033569336 90,85.1449966430664 90,75.4800033569336 C90,75.4800033569336 90,-33.737998962402344 90,-33.737998962402344 C90,-39.99800109863281 86.65599822998047,-45.78099822998047 81.23100280761719,-48.90399932861328 C81.23100280761719,-48.90399932861328 8.730999946594238,-90.64700317382812 8.730999946594238,-90.64700317382812z"/></g></g><g style="display: none;" mask="url(#__lottie_element_27_2)"><g transform="matrix(1,0,0,1,120,117.02300262451172)" opacity="1"><path class="primary" fill="rgb(0,0,0)" fill-opacity="1" d=" M-72.5,85.4800033569336 C-78.02300262451172,85.4800033569336 -82.5,81.00299835205078 -82.5,75.4800033569336 C-82.5,75.4800033569336 -82.5,-33.737998962402344 -82.5,-33.737998962402344 C-82.5,-37.314998626708984 -80.58999633789062,-40.61899948120117 -77.48999786376953,-42.40399932861328 C-77.48999786376953,-42.40399932861328 -4.989999771118164,-84.14700317382812 -4.989999771118164,-84.14700317382812 C-1.9010000228881836,-85.92500305175781 1.9010000228881836,-85.92500305175781 4.989999771118164,-84.14700317382812 C4.989999771118164,-84.14700317382812 77.48999786376953,-42.40399932861328 77.48999786376953,-42.40399932861328 C80.58999633789062,-40.61899948120117 82.5,-37.314998626708984 82.5,-33.737998962402344 C82.5,-33.737998962402344 82.5,75.4800033569336 82.5,75.4800033569336 C82.5,81.00299835205078 78.02300262451172,85.4800033569336 72.5,85.4800033569336 C72.5,85.4800033569336 -72.5,85.4800033569336 -72.5,85.4800033569336z"/><g opacity="1" transform="matrix(1,0,0,1,0,0)"><path stroke-linecap="round" stroke-linejoin="round" fill-opacity="0" class="primary" stroke="rgb(0,0,0)" stroke-opacity="1" stroke-width="15" d=" M-72.5,85.4800033569336 C-78.02300262451172,85.4800033569336 -82.5,81.00299835205078 -82.5,75.4800033569336 C-82.5,75.4800033569336 -82.5,-33.737998962402344 -82.5,-33.737998962402344 C-82.5,-37.314998626708984 -80.58999633789062,-40.61899948120117 -77.48999786376953,-42.40399932861328 C-77.48999786376953,-42.40399932861328 -4.989999771118164,-84.14700317382812 -4.989999771118164,-84.14700317382812 C-1.9010000228881836,-85.92500305175781 1.9010000228881836,-85.92500305175781 4.989999771118164,-84.14700317382812 C4.989999771118164,-84.14700317382812 77.48999786376953,-42.40399932861328 77.48999786376953,-42.40399932861328 C80.58999633789062,-40.61899948120117 82.5,-37.314998626708984 82.5,-33.737998962402344 C82.5,-33.737998962402344 82.5,75.4800033569336 82.5,75.4800033569336 C82.5,81.00299835205078 78.02300262451172,85.4800033569336 72.5,85.4800033569336 C72.5,85.4800033569336 -72.5,85.4800033569336 -72.5,85.4800033569336z"/></g></g></g><g style="display: none;" transform="matrix(1,0,0,1,120,117.0199966430664)" opacity="1"><g opacity="1" transform="matrix(1,0,0,1,0,0)"><path class="primary" fill="rgb(0,0,0)" fill-opacity="1" d=" M8.730999946594238,-90.64700317382812 C3.3259999752044678,-93.75900268554688 -3.3259999752044678,-93.75900268554688 -8.730999946594238,-90.64700317382812 C-8.730999946594238,-90.64700317382812 -81.23100280761719,-48.90399932861328 -81.23100280761719,-48.90399932861328 C-86.65599822998047,-45.78099822998047 -90,-39.99800109863281 -90,-33.737998962402344 C-90,-33.737998962402344 -90,75.4800033569336 -90,75.4800033569336 C-90,85.1449966430664 -82.16500091552734,92.9800033569336 -72.5,92.9800033569336 C-72.5,92.9800033569336 -37.5,92.9800033569336 -37.5,92.9800033569336 C-27.834999084472656,92.9800033569336 -20,85.1449966430664 -20,75.4800033569336 C-20,75.4800033569336 -20,22.979999542236328 -20,22.979999542236328 C-20,22.979999542236328 20,22.979999542236328 20,22.979999542236328 C20,22.979999542236328 20,75.4800033569336 20,75.4800033569336 C20,85.1449966430664 27.834999084472656,92.9800033569336 37.5,92.9800033569336 C37.5,92.9800033569336 72.5,92.9800033569336 72.5,92.9800033569336 C82.16500091552734,92.9800033569336 90,85.1449966430664 90,75.4800033569336 C90,75.4800033569336 90,-33.737998962402344 90,-33.737998962402344 C90,-39.99800109863281 86.65599822998047,-45.78099822998047 81.23100280761719,-48.90399932861328 C81.23100280761719,-48.90399932861328 8.730999946594238,-90.64700317382812 8.730999946594238,-90.64700317382812z"/></g></g></g></g></svg>