<svg xmlns="http://www.w3.org/2000/svg" xmlns:xlink="http://www.w3.org/1999/xlink" viewBox="0 0 500 500" width="500" height="500" style="width: 100%; height: 100%; transform: translate3d(0px, 0px, 0px); content-visibility: visible;" preserveAspectRatio="xMidYMid meet"><defs><clipPath id="__lottie_element_2"><rect width="500" height="500" x="0" y="0"/></clipPath><clipPath id="__lottie_element_4"><path d="M0,0 L500,0 L500,500 L0,500z"/></clipPath></defs><g clip-path="url(#__lottie_element_2)"><g clip-path="url(#__lottie_element_4)" style="display: block;" transform="matrix(1,0,0,1,0,0)" opacity="1"><g class="primary design" style="display: block;" transform="matrix(20.829999923706055,0,0,20.829999923706055,250,250)" opacity="1"><g opacity="1" transform="matrix(1,0,0,1,0,0)"><path class="primary" fill="rgb(0,0,0)" fill-opacity="1" d=" M-0.23999999463558197,-10 C-5.75,-9.859999656677246 -10.130000114440918,-5.269999980926514 -10,0.23999999463558197 C-9.869999885559082,5.670000076293945 -5.409999847412109,10 0,10 C0,10 0.23999999463558197,10 0.23999999463558197,10 C5.75,9.859999656677246 10.130000114440918,5.269999980926514 10,-0.23999999463558197 C9.859999656677246,-5.75 5.320000171661377,-10.140000343322754 -0.23999999463558197,-10z M-1,4 C-1,4 -1,0 -1,0 C-1,-0.550000011920929 -0.550000011920929,-1 0,-1 C0.550000011920929,-1 1,-0.550000011920929 1,0 C1,0 1,4 1,4 C1,4.550000190734863 0.550000011920929,5 0,5 C-0.550000011920929,5 -1,4.550000190734863 -1,4z M0.8799999952316284,-3.119999885559082 C0.8199999928474426,-3.059999942779541 0.7599999904632568,-3.009999990463257 0.6899999976158142,-2.9600000381469727 C0.6299999952316284,-2.9200000762939453 0.550000011920929,-2.880000114440918 0.47999998927116394,-2.8499999046325684 C0.4000000059604645,-2.809999942779541 0.3199999928474426,-2.7899999618530273 0.23999999463558197,-2.7699999809265137 C0.1599999964237213,-2.759999990463257 0.07999999821186066,-2.75 0,-2.75 C-0.33000001311302185,-2.75 -0.6499999761581421,-2.880000114440918 -0.8799999952316284,-3.119999885559082 C-0.9399999976158142,-3.1700000762939453 -0.9900000095367432,-3.240000009536743 -1.0399999618530273,-3.309999942779541 C-1.0800000429153442,-3.369999885559082 -1.1200000047683716,-3.450000047683716 -1.149999976158142,-3.5199999809265137 C-1.190000057220459,-3.5999999046325684 -1.2100000381469727,-3.680000066757202 -1.2300000190734863,-3.759999990463257 C-1.2400000095367432,-3.8399999141693115 -1.25,-3.9200000762939453 -1.25,-4 C-1.25,-4.079999923706055 -1.2400000095367432,-4.159999847412109 -1.2300000190734863,-4.239999771118164 C-1.2100000381469727,-4.320000171661377 -1.190000057220459,-4.400000095367432 -1.149999976158142,-4.480000019073486 C-1.1200000047683716,-4.550000190734863 -1.0800000429153442,-4.630000114440918 -1.0399999618530273,-4.690000057220459 C-0.9900000095367432,-4.760000228881836 -0.9399999976158142,-4.829999923706055 -0.8799999952316284,-4.880000114440918 C-0.5899999737739563,-5.170000076293945 -0.1599999964237213,-5.309999942779541 0.23999999463558197,-5.230000019073486 C0.3199999928474426,-5.210000038146973 0.4000000059604645,-5.190000057220459 0.47999998927116394,-5.150000095367432 C0.550000011920929,-5.119999885559082 0.6299999952316284,-5.079999923706055 0.6899999976158142,-5.039999961853027 C0.7599999904632568,-4.989999771118164 0.8199999928474426,-4.940000057220459 0.8799999952316284,-4.880000114440918 C0.9399999976158142,-4.829999923706055 0.9900000095367432,-4.760000228881836 1.0399999618530273,-4.690000057220459 C1.0800000429153442,-4.630000114440918 1.1200000047683716,-4.550000190734863 1.149999976158142,-4.480000019073486 C1.190000057220459,-4.400000095367432 1.2100000381469727,-4.320000171661377 1.2300000190734863,-4.239999771118164 C1.2400000095367432,-4.159999847412109 1.25,-4.079999923706055 1.25,-4 C1.25,-3.9200000762939453 1.2400000095367432,-3.8399999141693115 1.2300000190734863,-3.759999990463257 C1.2100000381469727,-3.680000066757202 1.190000057220459,-3.5999999046325684 1.149999976158142,-3.5199999809265137 C1.1200000047683716,-3.450000047683716 1.0800000429153442,-3.369999885559082 1.0399999618530273,-3.309999942779541 C0.9900000095367432,-3.240000009536743 0.9399999976158142,-3.1700000762939453 0.8799999952316284,-3.119999885559082z"/></g></g></g></g></svg>