<svg xmlns="http://www.w3.org/2000/svg" xmlns:xlink="http://www.w3.org/1999/xlink" viewBox="0 0 500 500" width="500" height="500" style="width: 100%; height: 100%; transform: translate3d(0px, 0px, 0px); content-visibility: visible;" preserveAspectRatio="xMidYMid meet"><defs><clipPath id="__lottie_element_16"><rect width="500" height="500" x="0" y="0"/></clipPath><clipPath id="__lottie_element_18"><path d="M0,0 L500,0 L500,500 L0,500z"/></clipPath><g id="__lottie_element_28"><g class="primary design" style="display: block;" transform="matrix(1,0,0,1,250,250)" opacity="1"><g opacity="1" transform="matrix(1,0,0,1,80.76200103759766,-69.84400177001953)"><path class="primary" fill="rgb(0,0,0)" fill-opacity="1" d=" M246.76150512695312,-240.156005859375 C246.76150512695312,-240.156005859375 246.76150512695312,240.156005859375 246.76150512695312,240.156005859375 C246.76150512695312,240.156005859375 -246.76150512695312,240.156005859375 -246.76150512695312,240.156005859375 C-246.76150512695312,240.156005859375 -246.76150512695312,-240.156005859375 -246.76150512695312,-240.156005859375 C-246.76150512695312,-240.156005859375 246.76150512695312,-240.156005859375 246.76150512695312,-240.156005859375z"/><path stroke-linecap="butt" stroke-linejoin="miter" fill-opacity="0" stroke-miterlimit="4" class="primary" stroke="rgb(0,0,0)" stroke-opacity="1" stroke-width="0" d=" M246.76150512695312,-240.156005859375 C246.76150512695312,-240.156005859375 246.76150512695312,240.156005859375 246.76150512695312,240.156005859375 C246.76150512695312,240.156005859375 -246.76150512695312,240.156005859375 -246.76150512695312,240.156005859375 C-246.76150512695312,240.156005859375 -246.76150512695312,-240.156005859375 -246.76150512695312,-240.156005859375 C-246.76150512695312,-240.156005859375 246.76150512695312,-240.156005859375 246.76150512695312,-240.156005859375z"/></g></g></g><mask id="__lottie_element_28_1" mask-type="alpha"><use a0:href="#__lottie_element_28" xmlns:a0="http://www.w3.org/1999/xlink"/></mask></defs><g clip-path="url(#__lottie_element_16)"><g clip-path="url(#__lottie_element_18)" style="display: block;" transform="matrix(1,0,0,1,0,0)" opacity="1"><g class="primary design" style="display: none;" transform="matrix(1,0,0,1,0,0)" opacity="1"><g opacity="1" transform="matrix(1,0,0,1,239.62899780273438,260.4169921875)"><path class="primary" fill="rgb(0,0,0)" fill-opacity="1" d=" M156.25,2.2920000553131104 C144.79200744628906,2.2920000553131104 135.41700744628906,11.666999816894531 135.41700744628906,23.125 C135.41700744628906,23.125 136.04200744628906,135.41700744628906 136.04200744628906,135.41700744628906 C136.04200744628906,135.41700744628906 -135.41700744628906,136.04200744628906 -135.41700744628906,136.04200744628906 C-135.41700744628906,136.04200744628906 -136.04200744628906,-135.41700744628906 -136.04200744628906,-135.41700744628906 C-136.04200744628906,-135.41700744628906 -23.125,-135.41700744628906 -23.125,-135.41700744628906 C-11.666999816894531,-135.41700744628906 -2.2920000553131104,-144.79200744628906 -2.2920000553131104,-156.25 C-2.2920000553131104,-167.70799255371094 -11.666999816894531,-177.08299255371094 -23.125,-177.08299255371094 C-23.125,-177.08299255371094 -136.04200744628906,-177.08299255371094 -136.04200744628906,-177.08299255371094 C-158.75,-177.08299255371094 -177.08299255371094,-158.75 -177.08299255371094,-136.04200744628906 C-177.08299255371094,-136.04200744628906 -177.08299255371094,136.04200744628906 -177.08299255371094,136.04200744628906 C-177.08299255371094,158.75 -158.75,177.08299255371094 -136.04200744628906,177.08299255371094 C-136.04200744628906,177.08299255371094 136.04200744628906,177.08299255371094 136.04200744628906,177.08299255371094 C158.75,177.08299255371094 177.08299255371094,158.75 177.08299255371094,136.04200744628906 C177.08299255371094,136.04200744628906 177.08299255371094,23.125 177.08299255371094,23.125 C177.08299255371094,11.666999816894531 167.70799255371094,2.2920000553131104 156.25,2.2920000553131104z"/></g><g opacity="1" transform="matrix(1,0,0,1,333.3529968261719,166.66700744628906)"><path class="primary" fill="rgb(0,0,0)" fill-opacity="1" d=" M83.35900115966797,-104.16699981689453 C83.35900115966797,-104.16699981689453 -29.55699920654297,-104.16699981689453 -29.55699920654297,-104.16699981689453 C-41.01499938964844,-104.16699981689453 -50.39099884033203,-94.79100036621094 -50.39099884033203,-83.33300018310547 C-50.39099884033203,-71.875 -41.01499938964844,-62.5 -29.55699920654297,-62.5 C-29.55699920654297,-62.5 33.1510009765625,-62.5 33.1510009765625,-62.5 C33.1510009765625,-62.5 -98.0989990234375,68.75 -98.0989990234375,68.75 C-106.2239990234375,76.875 -106.2239990234375,90 -98.0989990234375,98.125 C-93.93199920654297,102.08300018310547 -88.7239990234375,104.16699981689453 -83.30699920654297,104.16699981689453 C-77.88999938964844,104.16699981689453 -72.68199920654297,102.08300018310547 -68.7239990234375,98.125 C-68.7239990234375,98.125 62.5260009765625,-33.125 62.5260009765625,-33.125 C62.5260009765625,-33.125 62.5260009765625,29.58300018310547 62.5260009765625,29.58300018310547 C62.5260009765625,41.04100036621094 71.9010009765625,50.41699981689453 83.35900115966797,50.41699981689453 C94.81700134277344,50.41699981689453 104.19300079345703,41.04100036621094 104.19300079345703,29.58300018310547 C104.19300079345703,29.58300018310547 104.19300079345703,-83.33300018310547 104.19300079345703,-83.33300018310547 C104.19300079345703,-94.79100036621094 94.81700134277344,-104.16699981689453 83.35900115966797,-104.16699981689453z"/></g></g><g class="primary design" style="display: block;" transform="matrix(1,0,0,1,0,0)" opacity="1"><g opacity="1" transform="matrix(1,0,0,1,239.62899780273438,260.4169921875)"><path class="primary" fill="rgb(0,0,0)" fill-opacity="1" d=" M156.25,2.2920000553131104 C144.79200744628906,2.2920000553131104 135.41700744628906,11.666999816894531 135.41700744628906,23.125 C135.41700744628906,23.125 136.04200744628906,135.41700744628906 136.04200744628906,135.41700744628906 C136.04200744628906,135.41700744628906 -135.41700744628906,136.04200744628906 -135.41700744628906,136.04200744628906 C-135.41700744628906,136.04200744628906 -136.04200744628906,-135.41700744628906 -136.04200744628906,-135.41700744628906 C-136.04200744628906,-135.41700744628906 -23.125,-135.41700744628906 -23.125,-135.41700744628906 C-11.666999816894531,-135.41700744628906 -2.2920000553131104,-144.79200744628906 -2.2920000553131104,-156.25 C-2.2920000553131104,-167.70799255371094 -11.666999816894531,-177.08299255371094 -23.125,-177.08299255371094 C-23.125,-177.08299255371094 -136.04200744628906,-177.08299255371094 -136.04200744628906,-177.08299255371094 C-158.75,-177.08299255371094 -177.08299255371094,-158.75 -177.08299255371094,-136.04200744628906 C-177.08299255371094,-136.04200744628906 -177.08299255371094,136.04200744628906 -177.08299255371094,136.04200744628906 C-177.08299255371094,158.75 -158.75,177.08299255371094 -136.04200744628906,177.08299255371094 C-136.04200744628906,177.08299255371094 136.04200744628906,177.08299255371094 136.04200744628906,177.08299255371094 C158.75,177.08299255371094 177.08299255371094,158.75 177.08299255371094,136.04200744628906 C177.08299255371094,136.04200744628906 177.08299255371094,23.125 177.08299255371094,23.125 C177.08299255371094,11.666999816894531 167.70799255371094,2.2920000553131104 156.25,2.2920000553131104z"/></g></g><g class="primary design" style="display: block;" transform="matrix(1,0,0,1,0,0)" opacity="1"><g opacity="1" transform="matrix(1,0,0,1,333.3529968261719,166.66700744628906)"><path class="primary" fill="rgb(0,0,0)" fill-opacity="1" d=" M83.35900115966797,-104.16699981689453 C83.35900115966797,-104.16699981689453 -29.55699920654297,-104.16699981689453 -29.55699920654297,-104.16699981689453 C-41.01499938964844,-104.16699981689453 -50.39099884033203,-94.79100036621094 -50.39099884033203,-83.33300018310547 C-50.39099884033203,-71.875 -41.01499938964844,-62.5 -29.55699920654297,-62.5 C-29.55699920654297,-62.5 33.1510009765625,-62.5 33.1510009765625,-62.5 C33.1510009765625,-62.5 -98.0989990234375,68.75 -98.0989990234375,68.75 C-106.2239990234375,76.875 -106.2239990234375,90 -98.0989990234375,98.125 C-93.93199920654297,102.08300018310547 -88.7239990234375,104.16699981689453 -83.30699920654297,104.16699981689453 C-77.88999938964844,104.16699981689453 -72.68199920654297,102.08300018310547 -68.7239990234375,98.125 C-68.7239990234375,98.125 62.5260009765625,-33.125 62.5260009765625,-33.125 C62.5260009765625,-33.125 62.5260009765625,29.58300018310547 62.5260009765625,29.58300018310547 C62.5260009765625,41.04100036621094 71.9010009765625,50.41699981689453 83.35900115966797,50.41699981689453 C94.81700134277344,50.41699981689453 104.19300079345703,41.04100036621094 104.19300079345703,29.58300018310547 C104.19300079345703,29.58300018310547 104.19300079345703,-83.33300018310547 104.19300079345703,-83.33300018310547 C104.19300079345703,-94.79100036621094 94.81700134277344,-104.16699981689453 83.35900115966797,-104.16699981689453z"/></g></g><g style="display: none;" mask="url(#__lottie_element_28_1)"><g class="primary design" transform="matrix(1,0,0,1,-0.043609619140625,0.04461669921875)" opacity="1"><g opacity="1" transform="matrix(1,0,0,1,333.3529968261719,166.66700744628906)"><path class="primary" fill="rgb(0,0,0)" fill-opacity="1" d=" M83.35900115966797,-104.16699981689453 C83.35900115966797,-104.16699981689453 -29.55699920654297,-104.16699981689453 -29.55699920654297,-104.16699981689453 C-41.01499938964844,-104.16699981689453 -50.39099884033203,-94.79100036621094 -50.39099884033203,-83.33300018310547 C-50.39099884033203,-71.875 -41.01499938964844,-62.5 -29.55699920654297,-62.5 C-29.55699920654297,-62.5 33.1510009765625,-62.5 33.1510009765625,-62.5 C33.1510009765625,-62.5 -98.0989990234375,68.75 -98.0989990234375,68.75 C-106.2239990234375,76.875 -106.2239990234375,90 -98.0989990234375,98.125 C-93.93199920654297,102.08300018310547 -88.7239990234375,104.16699981689453 -83.30699920654297,104.16699981689453 C-77.88999938964844,104.16699981689453 -72.68199920654297,102.08300018310547 -68.7239990234375,98.125 C-68.7239990234375,98.125 62.5260009765625,-33.125 62.5260009765625,-33.125 C62.5260009765625,-33.125 62.5260009765625,29.58300018310547 62.5260009765625,29.58300018310547 C62.5260009765625,41.04100036621094 71.9010009765625,50.41699981689453 83.35900115966797,50.41699981689453 C94.81700134277344,50.41699981689453 104.19300079345703,41.04100036621094 104.19300079345703,29.58300018310547 C104.19300079345703,29.58300018310547 104.19300079345703,-83.33300018310547 104.19300079345703,-83.33300018310547 C104.19300079345703,-94.79100036621094 94.81700134277344,-104.16699981689453 83.35900115966797,-104.16699981689453z"/></g></g></g></g></g></svg>