<svg xmlns="http://www.w3.org/2000/svg" xmlns:xlink="http://www.w3.org/1999/xlink" viewBox="0 0 500 500" width="500" height="500" style="width: 100%; height: 100%; transform: translate3d(0px, 0px, 0px); content-visibility: visible;" preserveAspectRatio="xMidYMid meet"><defs><clipPath id="__lottie_element_16"><rect width="500" height="500" x="0" y="0"/></clipPath><clipPath id="__lottie_element_18"><path d="M0,0 L500,0 L500,500 L0,500z"/></clipPath></defs><g clip-path="url(#__lottie_element_16)"><g clip-path="url(#__lottie_element_18)" style="display: block;" transform="matrix(1,0,0,1,0,0)" opacity="1"><g class="primary design" style="display: block;" transform="matrix(1,0,0,1,0,0)" opacity="1"><g opacity="1" transform="matrix(1,0,0,1,166.81700134277344,197.41700744628906)"><path class="primary" fill="rgb(0,0,0)" fill-opacity="1" d=" M68.43800354003906,-16.45800018310547 C72.6050033569336,-12.5 77.81199645996094,-10.416999816894531 83.22899627685547,-10.416999816894531 C88.64600372314453,-10.416999816894531 93.85399627685547,-12.5 98.02100372314453,-16.66699981689453 C106.14600372314453,-24.79199981689453 106.14600372314453,-37.91699981689453 98.02100372314453,-46.04199981689453 C98.02100372314453,-46.04199981689453 14.687999725341797,-129.375 14.687999725341797,-129.375 C12.803999900817871,-131.15899658203125 10.630999565124512,-132.6009979248047 8.270999908447266,-133.63499450683594 C8.164999961853027,-133.6820068359375 8.062999725341797,-133.73800659179688 7.955999851226807,-133.7830047607422 C7.7220001220703125,-133.88099670410156 7.479000091552734,-133.95700073242188 7.241000175476074,-134.0469970703125 C5.577000141143799,-134.67999267578125 3.822999954223633,-135.125 1.9900000095367432,-135.30999755859375 C1.2999999523162842,-135.3800048828125 0.6010000109672546,-135.41700744628906 -0.10400000214576721,-135.41700744628906 C-6.77400016784668,-135.41700744628906 -12.722000122070312,-132.22799682617188 -16.54199981689453,-127.31300354003906 C-16.54199981689453,-127.31300354003906 -98.02100372314453,-45.83300018310547 -98.02100372314453,-45.83300018310547 C-106.14600372314453,-37.70800018310547 -106.14600372314453,-24.58300018310547 -98.02100372314453,-16.45800018310547 C-89.89600372314453,-8.333000183105469 -76.77100372314453,-8.333000183105469 -68.64600372314453,-16.45800018310547 C-68.64600372314453,-16.45800018310547 -20.937999725341797,-64.31199645996094 -20.937999725341797,-64.31199645996094 C-20.937999725341797,-64.31199645996094 -20.937999725341797,114.58300018310547 -20.937999725341797,114.58300018310547 C-20.937999725341797,126.04100036621094 -11.562000274658203,135.41700744628906 -0.10400000214576721,135.41700744628906 C11.354000091552734,135.41700744628906 20.729000091552734,126.04100036621094 20.729000091552734,114.58300018310547 C20.729000091552734,114.58300018310547 20.729000091552734,-64.31199645996094 20.729000091552734,-64.31199645996094 C20.729000091552734,-64.31199645996094 68.43800354003906,-16.45800018310547 68.43800354003906,-16.45800018310547z"/></g></g><g class="primary design" style="display: block;" transform="matrix(1,0,0,1,0,0)" opacity="1"><g opacity="1" transform="matrix(1,0,0,1,333.2749938964844,301.5830078125)"><path class="primary" fill="rgb(0,0,0)" fill-opacity="1" d=" M98.02100372314453,16.66699981689453 C89.89600372314453,8.541999816894531 76.77100372314453,8.541999816894531 68.64600372314453,16.66699981689453 C68.64600372314453,16.66699981689453 20.937999725341797,64.375 20.937999725341797,64.375 C20.937999725341797,64.375 20.937999725341797,-114.58300018310547 20.937999725341797,-114.58300018310547 C20.937999725341797,-126.04100036621094 11.562000274658203,-135.41700744628906 0.10400000214576721,-135.41700744628906 C-11.354999542236328,-135.41700744628906 -20.729000091552734,-126.04100036621094 -20.729000091552734,-114.58300018310547 C-20.729000091552734,-114.58300018310547 -20.729000091552734,64.43800354003906 -20.729000091552734,64.43800354003906 C-20.729000091552734,64.43800354003906 -68.64600372314453,16.66699981689453 -68.64600372314453,16.66699981689453 C-76.77100372314453,8.541999816894531 -89.89600372314453,8.541999816894531 -98.02100372314453,16.66699981689453 C-106.14600372314453,24.79199981689453 -106.14600372314453,37.91699981689453 -98.02100372314453,46.04199981689453 C-98.02100372314453,46.04199981689453 -14.687000274658203,129.375 -14.687000274658203,129.375 C-12.192000389099121,131.74600219726562 -9.319000244140625,133.42799377441406 -6.255000114440918,134.40899658203125 C-6.183000087738037,134.4320068359375 -6.113999843597412,134.46200561523438 -6.040999889373779,134.48399353027344 C-5.5320000648498535,134.64100646972656 -5.013999938964844,134.76699829101562 -4.49399995803833,134.88400268554688 C-4.336999893188477,134.9199981689453 -4.184000015258789,134.96800231933594 -4.025000095367432,135 C-3.5299999713897705,135.10000610351562 -3.0290000438690186,135.16600036621094 -2.5280001163482666,135.22999572753906 C-2.3429999351501465,135.2530059814453 -2.1619999408721924,135.29200744628906 -1.975000023841858,135.31100463867188 C-1.2860000133514404,135.37899780273438 -0.5929999947547913,135.41700744628906 0.10400000214576721,135.41700744628906 C0.8009999990463257,135.41700744628906 1.4950000047683716,135.37899780273438 2.183000087738037,135.31100463867188 C2.378000020980835,135.29100036621094 2.566999912261963,135.2519989013672 2.759999990463257,135.2270050048828 C3.250999927520752,135.16400146484375 3.740999937057495,135.0989990234375 4.223999977111816,135.0019989013672 C4.427000045776367,134.96099853515625 4.622000217437744,134.89999389648438 4.822999954223633,134.85299682617188 C5.285999774932861,134.7449951171875 5.748000144958496,134.63600158691406 6.203000068664551,134.49600219726562 C6.415999889373779,134.42999267578125 6.619999885559082,134.3459930419922 6.829999923706055,134.2740020751953 C7.254000186920166,134.1280059814453 7.678999900817871,133.98399353027344 8.093000411987305,133.80999755859375 C8.375,133.69200134277344 8.644000053405762,133.552001953125 8.918999671936035,133.4219970703125 C9.236000061035156,133.27200317382812 9.557000160217285,133.1300048828125 9.866999626159668,132.96299743652344 C10.366000175476074,132.6959991455078 10.847000122070312,132.40199279785156 11.321000099182129,132.0970001220703 C11.38599967956543,132.05499267578125 11.454000473022461,132.0189971923828 11.517999649047852,131.9759979248047 C12.92199993133545,131.0500030517578 14.199000358581543,129.9510040283203 15.34000015258789,128.72300720214844 C15.34000015258789,128.72300720214844 98.02100372314453,46.04199981689453 98.02100372314453,46.04199981689453 C106.14600372314453,37.91699981689453 106.14600372314453,24.79199981689453 98.02100372314453,16.66699981689453z"/></g></g><g class="primary design" style="display: none;" transform="matrix(1,0,0,1,0,0)" opacity="1"><g opacity="1" transform="matrix(1,0,0,1,166.81700134277344,197.41700744628906)"><path class="primary" fill="rgb(0,0,0)" fill-opacity="1" d=" M68.43800354003906,-16.45800018310547 C72.6050033569336,-12.5 77.81199645996094,-10.416999816894531 83.22899627685547,-10.416999816894531 C88.64600372314453,-10.416999816894531 93.85399627685547,-12.5 98.02100372314453,-16.66699981689453 C106.14600372314453,-24.79199981689453 106.14600372314453,-37.91699981689453 98.02100372314453,-46.04199981689453 C98.02100372314453,-46.04199981689453 14.687999725341797,-129.375 14.687999725341797,-129.375 C12.803999900817871,-131.15899658203125 10.630999565124512,-132.6009979248047 8.270999908447266,-133.63499450683594 C8.164999961853027,-133.6820068359375 8.062999725341797,-133.73800659179688 7.955999851226807,-133.7830047607422 C7.7220001220703125,-133.88099670410156 7.479000091552734,-133.95700073242188 7.241000175476074,-134.0469970703125 C5.577000141143799,-134.67999267578125 3.822999954223633,-135.125 1.9900000095367432,-135.30999755859375 C1.2999999523162842,-135.3800048828125 0.6010000109672546,-135.41700744628906 -0.10400000214576721,-135.41700744628906 C-6.77400016784668,-135.41700744628906 -12.722000122070312,-132.22799682617188 -16.54199981689453,-127.31300354003906 C-16.54199981689453,-127.31300354003906 -98.02100372314453,-45.83300018310547 -98.02100372314453,-45.83300018310547 C-106.14600372314453,-37.70800018310547 -106.14600372314453,-24.58300018310547 -98.02100372314453,-16.45800018310547 C-89.89600372314453,-8.333000183105469 -76.77100372314453,-8.333000183105469 -68.64600372314453,-16.45800018310547 C-68.64600372314453,-16.45800018310547 -20.937999725341797,-64.31199645996094 -20.937999725341797,-64.31199645996094 C-20.937999725341797,-64.31199645996094 -20.937999725341797,114.58300018310547 -20.937999725341797,114.58300018310547 C-20.937999725341797,126.04100036621094 -11.562000274658203,135.41700744628906 -0.10400000214576721,135.41700744628906 C11.354000091552734,135.41700744628906 20.729000091552734,126.04100036621094 20.729000091552734,114.58300018310547 C20.729000091552734,114.58300018310547 20.729000091552734,-64.31199645996094 20.729000091552734,-64.31199645996094 C20.729000091552734,-64.31199645996094 68.43800354003906,-16.45800018310547 68.43800354003906,-16.45800018310547z"/></g></g><g class="primary design" style="display: none;" transform="matrix(1,0,0,1,0,0)" opacity="1"><g opacity="1" transform="matrix(1,0,0,1,333.2749938964844,301.5830078125)"><path class="primary" fill="rgb(0,0,0)" fill-opacity="1" d=" M98.02100372314453,16.66699981689453 C89.89600372314453,8.541999816894531 76.77100372314453,8.541999816894531 68.64600372314453,16.66699981689453 C68.64600372314453,16.66699981689453 20.937999725341797,64.375 20.937999725341797,64.375 C20.937999725341797,64.375 20.937999725341797,-114.58300018310547 20.937999725341797,-114.58300018310547 C20.937999725341797,-126.04100036621094 11.562000274658203,-135.41700744628906 0.10400000214576721,-135.41700744628906 C-11.354999542236328,-135.41700744628906 -20.729000091552734,-126.04100036621094 -20.729000091552734,-114.58300018310547 C-20.729000091552734,-114.58300018310547 -20.729000091552734,64.43800354003906 -20.729000091552734,64.43800354003906 C-20.729000091552734,64.43800354003906 -68.64600372314453,16.66699981689453 -68.64600372314453,16.66699981689453 C-76.77100372314453,8.541999816894531 -89.89600372314453,8.541999816894531 -98.02100372314453,16.66699981689453 C-106.14600372314453,24.79199981689453 -106.14600372314453,37.91699981689453 -98.02100372314453,46.04199981689453 C-98.02100372314453,46.04199981689453 -14.687000274658203,129.375 -14.687000274658203,129.375 C-12.192000389099121,131.74600219726562 -9.319000244140625,133.42799377441406 -6.255000114440918,134.40899658203125 C-6.183000087738037,134.4320068359375 -6.113999843597412,134.46200561523438 -6.040999889373779,134.48399353027344 C-5.5320000648498535,134.64100646972656 -5.013999938964844,134.76699829101562 -4.49399995803833,134.88400268554688 C-4.336999893188477,134.9199981689453 -4.184000015258789,134.96800231933594 -4.025000095367432,135 C-3.5299999713897705,135.10000610351562 -3.0290000438690186,135.16600036621094 -2.5280001163482666,135.22999572753906 C-2.3429999351501465,135.2530059814453 -2.1619999408721924,135.29200744628906 -1.975000023841858,135.31100463867188 C-1.2860000133514404,135.37899780273438 -0.5929999947547913,135.41700744628906 0.10400000214576721,135.41700744628906 C0.8009999990463257,135.41700744628906 1.4950000047683716,135.37899780273438 2.183000087738037,135.31100463867188 C2.378000020980835,135.29100036621094 2.566999912261963,135.2519989013672 2.759999990463257,135.2270050048828 C3.250999927520752,135.16400146484375 3.740999937057495,135.0989990234375 4.223999977111816,135.0019989013672 C4.427000045776367,134.96099853515625 4.622000217437744,134.89999389648438 4.822999954223633,134.85299682617188 C5.285999774932861,134.7449951171875 5.748000144958496,134.63600158691406 6.203000068664551,134.49600219726562 C6.415999889373779,134.42999267578125 6.619999885559082,134.3459930419922 6.829999923706055,134.2740020751953 C7.254000186920166,134.1280059814453 7.678999900817871,133.98399353027344 8.093000411987305,133.80999755859375 C8.375,133.69200134277344 8.644000053405762,133.552001953125 8.918999671936035,133.4219970703125 C9.236000061035156,133.27200317382812 9.557000160217285,133.1300048828125 9.866999626159668,132.96299743652344 C10.366000175476074,132.6959991455078 10.847000122070312,132.40199279785156 11.321000099182129,132.0970001220703 C11.38599967956543,132.05499267578125 11.454000473022461,132.0189971923828 11.517999649047852,131.9759979248047 C12.92199993133545,131.0500030517578 14.199000358581543,129.9510040283203 15.34000015258789,128.72300720214844 C15.34000015258789,128.72300720214844 98.02100372314453,46.04199981689453 98.02100372314453,46.04199981689453 C106.14600372314453,37.91699981689453 106.14600372314453,24.79199981689453 98.02100372314453,16.66699981689453z"/></g></g></g></g></svg>