<svg xmlns="http://www.w3.org/2000/svg" xmlns:xlink="http://www.w3.org/1999/xlink" viewBox="0 0 500 500" width="500" height="500" style="width: 100%; height: 100%; transform: translate3d(0px, 0px, 0px); content-visibility: visible;" preserveAspectRatio="xMidYMid meet"><defs><clipPath id="__lottie_element_2"><rect width="500" height="500" x="0" y="0"/></clipPath><clipPath id="__lottie_element_4"><path d="M0,0 L500,0 L500,500 L0,500z"/></clipPath></defs><g clip-path="url(#__lottie_element_2)"><g clip-path="url(#__lottie_element_4)" style="display: block;" transform="matrix(1,0,0,1,0,0)" opacity="1"><g class="primary design" style="display: none;"><g><path class="primary"/></g></g><g class="primary design" style="display: none;"><g><path class="primary"/></g></g><g class="primary design" style="display: block;" transform="matrix(1,0,0,1,0,0)" opacity="1"><g opacity="1" transform="matrix(1,0,0,1,333.3789978027344,250)"><path class="primary" fill="rgb(0,0,0)" fill-opacity="1" d=" M20.83300018310547,145.83299255371094 C20.83300018310547,145.83299255371094 -20.83300018310547,145.83299255371094 -20.83300018310547,145.83299255371094 C-32.29100036621094,145.83299255371094 -41.66699981689453,136.45799255371094 -41.66699981689453,125 C-41.66699981689453,125 -41.66699981689453,-125 -41.66699981689453,-125 C-41.66699981689453,-136.45799255371094 -32.29100036621094,-145.83299255371094 -20.83300018310547,-145.83299255371094 C-20.83300018310547,-145.83299255371094 20.83300018310547,-145.83299255371094 20.83300018310547,-145.83299255371094 C32.29100036621094,-145.83299255371094 41.66699981689453,-136.45799255371094 41.66699981689453,-125 C41.66699981689453,-125 41.66699981689453,125 41.66699981689453,125 C41.66699981689453,136.45799255371094 32.29100036621094,145.83299255371094 20.83300018310547,145.83299255371094z"/></g></g><g class="primary design" style="display: block;" transform="matrix(1,0,0,1,0,0)" opacity="1"><g opacity="1" transform="matrix(1,0,0,1,166.71299743652344,250)"><path class="primary" fill="rgb(0,0,0)" fill-opacity="1" d=" M20.83300018310547,145.83299255371094 C20.83300018310547,145.83299255371094 -20.83300018310547,145.83299255371094 -20.83300018310547,145.83299255371094 C-32.29100036621094,145.83299255371094 -41.66699981689453,136.45799255371094 -41.66699981689453,125 C-41.66699981689453,125 -41.66699981689453,-125 -41.66699981689453,-125 C-41.66699981689453,-136.45799255371094 -32.29100036621094,-145.83299255371094 -20.83300018310547,-145.83299255371094 C-20.83300018310547,-145.83299255371094 20.83300018310547,-145.83299255371094 20.83300018310547,-145.83299255371094 C32.29100036621094,-145.83299255371094 41.66699981689453,-136.45799255371094 41.66699981689453,-125 C41.66699981689453,-125 41.66699981689453,125 41.66699981689453,125 C41.66699981689453,136.45799255371094 32.29100036621094,145.83299255371094 20.83300018310547,145.83299255371094z"/></g></g></g></g></svg>