<svg xmlns="http://www.w3.org/2000/svg" xmlns:xlink="http://www.w3.org/1999/xlink" viewBox="0 0 500 500" width="500" height="500" style="width: 100%; height: 100%; transform: translate3d(0px, 0px, 0px); content-visibility: visible;" preserveAspectRatio="xMidYMid meet"><defs><clipPath id="__lottie_element_2"><rect width="500" height="500" x="0" y="0"/></clipPath><clipPath id="__lottie_element_4"><path d="M0,0 L500,0 L500,500 L0,500z"/></clipPath></defs><g clip-path="url(#__lottie_element_2)"><g clip-path="url(#__lottie_element_4)" style="display: block;" transform="matrix(1,0,0,1,0,0)" opacity="1"><g class="primary design" style="display: block;" transform="matrix(20.829999923706055,0,0,20.829999923706055,249.9980010986328,250.01300048828125)" opacity="1"><g opacity="1" transform="matrix(1,0,0,1,0,0)"><path class="primary" fill="rgb(0,0,0)" fill-opacity="1" d=" M-1.2990000247955322,3.6996681690216064 C-1.6929999589920044,3.3116681575775146 -2.3269999027252197,3.3166680335998535 -2.7130000591278076,3.7116682529449463 C-3.1010000705718994,4.105668067932129 -3.0950000286102295,4.738667964935303 -2.7009999752044678,5.125668048858643 C-2.7009999752044678,5.125668048858643 -0.7080000042915344,7.086668014526367 -0.7080000042915344,7.086668014526367 C-0.7080000042915344,7.086668014526367 -0.7070000171661377,7.087667942047119 -0.7070000171661377,7.087667942047119 C-0.7070000171661377,7.087667942047119 -0.7009999752044678,7.092668056488037 -0.7009999752044678,7.092668056488037 C-0.675000011920929,7.118668079376221 -0.6399999856948853,7.12882661819458 -0.6119999885559082,7.150826930999756 C-0.5389999747276306,7.208826541900635 -0.46700000762939453,7.266826629638672 -0.3799999952316284,7.302826881408691 C-0.257999986410141,7.3528265953063965 -0.1289999932050705,7.379826545715332 0,7.379826545715332 C0.1289999932050705,7.379826545715332 0.257999986410141,7.3528265953063965 0.3799999952316284,7.302826881408691 C0.46700000762939453,7.266826629638672 0.5400000214576721,7.208668231964111 0.6129999756813049,7.150668144226074 C0.640999972820282,7.128668308258057 0.675000011920929,7.118668079376221 0.7009999752044678,7.092668056488037 C0.7009999752044678,7.092668056488037 0.7070000171661377,7.087667942047119 0.7070000171661377,7.087667942047119 C0.7070000171661377,7.087667942047119 0.7080000042915344,7.086668014526367 0.7080000042915344,7.086668014526367 C0.7080000042915344,7.086668014526367 2.7009999752044678,5.125826835632324 2.7009999752044678,5.125826835632324 C3.0950000286102295,4.738826751708984 3.1010000705718994,4.1058268547058105 2.7130000591278076,3.711826801300049 C2.3259999752044678,3.317826747894287 1.6920000314712524,3.311826705932617 1.2990000247955322,3.699826717376709 C1.2990000247955322,3.699826717376709 1,3.9938266277313232 1,3.9938266277313232 C1,3.9938266277313232 1,-3.9956681728363037 1,-3.9956681728363037 C1,-3.9956681728363037 1.2990000247955322,-3.7016680240631104 1.2990000247955322,-3.7016680240631104 C1.4930000305175781,-3.5106680393218994 1.746999979019165,-3.414668083190918 2,-3.414668083190918 C2.259000062942505,-3.414668083190918 2.5179998874664307,-3.513826847076416 2.7130000591278076,-3.712826728820801 C3.1010000705718994,-4.1068267822265625 3.0950000286102295,-4.739826679229736 2.7009999752044678,-5.126826763153076 C2.7009999752044678,-5.126826763153076 0.7080000042915344,-7.087826728820801 0.7080000042915344,-7.087826728820801 C0.7080000042915344,-7.087826728820801 0.7070000171661377,-7.088826656341553 0.7070000171661377,-7.088826656341553 C0.7070000171661377,-7.088826656341553 0.7009999752044678,-7.094667911529541 0.7009999752044678,-7.094667911529541 C0.6740000247955322,-7.120667934417725 0.6399999856948853,-7.1306681632995605 0.6110000014305115,-7.15366792678833 C0.5389999747276306,-7.210668087005615 0.46700000762939453,-7.268668174743652 0.3799999952316284,-7.304667949676514 C0.13600000739097595,-7.40466833114624 -0.13699999451637268,-7.40466833114624 -0.3799999952316284,-7.304667949676514 C-0.4659999907016754,-7.268668174743652 -0.5379999876022339,-7.210826873779297 -0.6100000143051147,-7.153826713562012 C-0.6389999985694885,-7.130826950073242 -0.6740000247955322,-7.120667934417725 -0.7009999752044678,-7.094667911529541 C-0.7009999752044678,-7.094667911529541 -0.7070000171661377,-7.088826656341553 -0.7070000171661377,-7.088826656341553 C-0.7070000171661377,-7.088826656341553 -0.7080000042915344,-7.087826728820801 -0.7080000042915344,-7.087826728820801 C-0.7080000042915344,-7.087826728820801 -2.7009999752044678,-5.126826763153076 -2.7009999752044678,-5.126826763153076 C-3.0950000286102295,-4.739826679229736 -3.1010000705718994,-4.1068267822265625 -2.7130000591278076,-3.712826728820801 C-2.3269999027252197,-3.318826675415039 -1.6929999589920044,-3.3146681785583496 -1.2990000247955322,-3.7016680240631104 C-1.2990000247955322,-3.7016680240631104 -1,-3.9956681728363037 -1,-3.9956681728363037 C-1,-3.9956681728363037 -1,3.9936680793762207 -1,3.9936680793762207 C-1,3.9936680793762207 -1.2990000247955322,3.6996681690216064 -1.2990000247955322,3.6996681690216064z"/></g></g><g class="primary design" style="display: block;" transform="matrix(20.829999923706055,0,0,20.829999923706055,249.9980010986328,437.46600341796875)" opacity="1"><g opacity="1" transform="matrix(1,0,0,1,0,0)"><path class="primary" fill="rgb(0,0,0)" fill-opacity="1" d=" M7,-0.6954655051231384 C7,-0.6954655051231384 -7,-0.6954655051231384 -7,-0.6954655051231384 C-7.552999973297119,-0.6954655051231384 -8,-0.24746549129486084 -8,0.3045344948768616 C-8,0.856534481048584 -7.552999973297119,1.3045345544815063 -7,1.3045345544815063 C-7,1.3045345544815063 7,1.3045345544815063 7,1.3045345544815063 C7.552999973297119,1.3045345544815063 8,0.856534481048584 8,0.3045344948768616 C8,-0.24746549129486084 7.552999973297119,-0.6954655051231384 7,-0.6954655051231384z"/></g></g><g class="primary design" style="display: block;" transform="matrix(20.829999923706055,0,0,20.829999923706055,249.9980010986328,62.5260009765625)" opacity="1"><g opacity="1" transform="matrix(1,0,0,1,0,0)"><path class="primary" fill="rgb(0,0,0)" fill-opacity="1" d=" M7,-1.3045345544815063 C7,-1.3045345544815063 -7,-1.3045345544815063 -7,-1.3045345544815063 C-7.552999973297119,-1.3045345544815063 -8,-0.856534481048584 -8,-0.3045344948768616 C-8,0.24746549129486084 -7.552999973297119,0.6954655051231384 -7,0.6954655051231384 C-7,0.6954655051231384 7,0.6954655051231384 7,0.6954655051231384 C7.552999973297119,0.6954655051231384 8,0.24746549129486084 8,-0.3045344948768616 C8,-0.856534481048584 7.552999973297119,-1.3045345544815063 7,-1.3045345544815063z"/></g></g></g></g></svg>