<svg xmlns="http://www.w3.org/2000/svg" xmlns:xlink="http://www.w3.org/1999/xlink" viewBox="0 0 500 500" width="500" height="500" style="width: 100%; height: 100%; transform: translate3d(0px, 0px, 0px); content-visibility: visible;" preserveAspectRatio="xMidYMid meet"><defs><clipPath id="__lottie_element_2"><rect width="500" height="500" x="0" y="0"/></clipPath><clipPath id="__lottie_element_4"><path d="M0,0 L500,0 L500,500 L0,500z"/></clipPath></defs><g clip-path="url(#__lottie_element_2)"><g clip-path="url(#__lottie_element_4)" style="display: block;" transform="matrix(1,0,0,1,0,0)" opacity="1"><g class="primary design" style="display: block;" transform="matrix(20.829998016357422,0,0,20.829999923706055,243.31178283691406,332.6920166015625)" opacity="1"><g opacity="1" transform="matrix(1,0,0,1,0,0)"><path class="primary" fill="rgb(0,0,0)" fill-opacity="1" d=" M6.86899995803833,-1.2450000047683716 C6.86899995803833,-1.2450000047683716 3.3940000534057617,-1.2450000047683716 3.3940000534057617,-1.2450000047683716 C2.8410000801086426,-1.2450000047683716 2.3940000534057617,-0.796999990940094 2.3940000534057617,-0.24500000476837158 C2.3940000534057617,0.3070000112056732 2.8410000801086426,0.7549999952316284 3.3940000534057617,0.7549999952316284 C3.3940000534057617,0.7549999952316284 4.389999866485596,0.7549999952316284 4.389999866485596,0.7549999952316284 C3.2760000228881836,1.718000054359436 1.8530000448226929,2.2699999809265137 0.32100000977516174,2.2699999809265137 C-2.9119999408721924,2.2699999809265137 -5.574999809265137,-0.1509999930858612 -5.872000217437744,-3.361999988555908 C-5.923999786376953,-3.9119999408721924 -6.4070000648498535,-4.318999767303467 -6.960000038146973,-4.264999866485596 C-7.511000156402588,-4.214000225067139 -7.915999889373779,-3.7279999256134033 -7.864999771118164,-3.177999973297119 C-7.4710001945495605,1.0679999589920044 -3.9519999027252197,4.269999980926514 0.32100000977516174,4.269999980926514 C2.3919999599456787,4.269999980926514 4.368000030517578,3.4670000076293945 5.86899995803833,2.1040000915527344 C5.86899995803833,2.1040000915527344 5.86899995803833,3.2300000190734863 5.86899995803833,3.2300000190734863 C5.86899995803833,3.7820000648498535 6.315999984741211,4.230000019073486 6.86899995803833,4.230000019073486 C7.421999931335449,4.230000019073486 7.86899995803833,3.7820000648498535 7.86899995803833,3.2300000190734863 C7.86899995803833,3.2300000190734863 7.86899995803833,-0.24500000476837158 7.86899995803833,-0.24500000476837158 C7.86899995803833,-0.796999990940094 7.421999931335449,-1.2450000047683716 6.86899995803833,-1.2450000047683716z"/></g></g><g class="primary design" style="display: block;" transform="matrix(20.829998016357422,0,0,20.829999923706055,256.3690490722656,167.30599975585938)" opacity="1"><g opacity="1" transform="matrix(1,0,0,1,0,0)"><path class="primary" fill="rgb(0,0,0)" fill-opacity="1" d=" M-0.3059999942779541,-4.269999980926514 C-2.4230000972747803,-4.269999980926514 -4.38700008392334,-3.4760000705718994 -5.885000228881836,-2.0910000801086426 C-5.885000228881836,-2.0910000801086426 -5.885000228881836,-3.2300000190734863 -5.885000228881836,-3.2300000190734863 C-5.885000228881836,-3.7820000648498535 -6.331999778747559,-4.230000019073486 -6.885000228881836,-4.230000019073486 C-7.438000202178955,-4.230000019073486 -7.885000228881836,-3.7820000648498535 -7.885000228881836,-3.2300000190734863 C-7.885000228881836,-3.2300000190734863 -7.885000228881836,0.2460000067949295 -7.885000228881836,0.2460000067949295 C-7.885000228881836,0.7979999780654907 -7.438000202178955,1.246000051498413 -6.885000228881836,1.246000051498413 C-6.885000228881836,1.246000051498413 -3.4089999198913574,1.246000051498413 -3.4089999198913574,1.246000051498413 C-2.8559999465942383,1.246000051498413 -2.4089999198913574,0.7979999780654907 -2.4089999198913574,0.2460000067949295 C-2.4089999198913574,-0.3059999942779541 -2.8559999465942383,-0.7540000081062317 -3.4089999198913574,-0.7540000081062317 C-3.4089999198913574,-0.7540000081062317 -4.375,-0.7540000081062317 -4.375,-0.7540000081062317 C-3.260999917984009,-1.7170000076293945 -1.8380000591278076,-2.2699999809265137 -0.3059999942779541,-2.2699999809265137 C2.927999973297119,-2.2699999809265137 5.591000080108643,0.1509999930858612 5.888000011444092,3.361999988555908 C5.936999797821045,3.88100004196167 6.373000144958496,4.269999980926514 6.883999824523926,4.269999980926514 C6.914000034332275,4.269999980926514 6.945000171661377,4.269000053405762 6.97599983215332,4.265999794006348 C7.5269999504089355,4.215000152587891 7.932000160217285,3.7279999256134033 7.88100004196167,3.177999973297119 C7.486999988555908,-1.0679999589920044 3.9670000076293945,-4.269999980926514 -0.3059999942779541,-4.269999980926514z"/></g></g></g></g></svg>