<svg xmlns="http://www.w3.org/2000/svg" xmlns:xlink="http://www.w3.org/1999/xlink" viewBox="0 0 240 240" width="240" height="240" style="width: 100%; height: 100%; transform: translate3d(0px, 0px, 0px); content-visibility: visible;" preserveAspectRatio="xMidYMid meet"><defs><clipPath id="__lottie_element_2"><rect width="240" height="240" x="0" y="0"/></clipPath><clipPath id="__lottie_element_4"><path d="M0,0 L240,0 L240,240 L0,240z"/></clipPath></defs><g clip-path="url(#__lottie_element_2)"><g clip-path="url(#__lottie_element_4)" style="display: block;" transform="matrix(1,0,0,1,0,0)" opacity="1"><g style="display: block;" transform="matrix(1,-0.0000012068345540683367,0.0000012068345540683367,1,116.24891662597656,116.2510757446289)" opacity="1"><g opacity="1" transform="matrix(1,0,0,1,0,0)"><path class="primary" fill="rgb(0,0,0)" fill-opacity="1" d=" M-58.979000091552734,-58.979000091552734 C-32.61899948120117,-85.33899688720703 10.119999885559082,-85.33899688720703 36.47999954223633,-58.979000091552734 C62.84000015258789,-32.61899948120117 62.84000015258789,10.119999885559082 36.47999954223633,36.47999954223633 C10.119999885559082,62.84000015258789 -32.61899948120117,62.84000015258789 -58.979000091552734,36.47999954223633 C-85.33899688720703,10.119999885559082 -85.33899688720703,-32.61899948120117 -58.979000091552734,-58.979000091552734z M47.08700180053711,-69.58499908447266 C14.869000434875488,-101.8030014038086 -37.367000579833984,-101.8030014038086 -69.58499908447266,-69.58499908447266 C-101.8030014038086,-37.367000579833984 -101.8030014038086,14.869000434875488 -69.58499908447266,47.08700180053711 C-39.15399932861328,77.51799774169922 9.133999824523926,79.20600128173828 41.54600143432617,52.152000427246094 C41.54600143432617,52.152000427246094 80.94599914550781,91.552001953125 80.94599914550781,91.552001953125 C80.94599914550781,91.552001953125 91.552001953125,80.94599914550781 91.552001953125,80.94599914550781 C91.552001953125,80.94599914550781 52.152000427246094,41.54600143432617 52.152000427246094,41.54600143432617 C79.20600128173828,9.133999824523926 77.51799774169922,-39.15399932861328 47.08700180053711,-69.58499908447266z M91.552001953125,91.552001953125 C94.48100280761719,88.62300109863281 94.48100280761719,83.875 91.552001953125,80.94599914550781 C91.552001953125,80.94599914550781 80.94599914550781,91.552001953125 80.94599914550781,91.552001953125 C83.875,94.48100280761719 88.62300109863281,94.48100280761719 91.552001953125,91.552001953125z"/></g></g></g></g></svg>