<svg xmlns="http://www.w3.org/2000/svg" xmlns:xlink="http://www.w3.org/1999/xlink" viewBox="0 0 500 500" width="500" height="500" style="width: 100%; height: 100%; transform: translate3d(0px, 0px, 0px); content-visibility: visible;" preserveAspectRatio="xMidYMid meet"><defs><clipPath id="__lottie_element_2"><rect width="500" height="500" x="0" y="0"/></clipPath><clipPath id="__lottie_element_4"><path d="M0,0 L500,0 L500,500 L0,500z"/></clipPath></defs><g clip-path="url(#__lottie_element_2)"><g clip-path="url(#__lottie_element_4)" style="display: block;" transform="matrix(1,0,0,1,0,0)" opacity="1"><g class="primary design" style="display: block;" transform="matrix(1,0,0,1,250,250)" opacity="1"><g opacity="1" transform="matrix(1,0,0,1,0,0)"><path class="primary" fill="rgb(0,0,0)" fill-opacity="1" d=" M183.99200439453125,45.53900146484375 C183.99200439453125,45.53900146484375 144.05499267578125,22.472000122070312 144.05499267578125,22.472000122070312 C145.2449951171875,14.986000061035156 145.8699951171875,7.315000057220459 145.8699951171875,-0.5 C145.8699951171875,-8.3149995803833 145.2449951171875,-15.987000465393066 144.05499267578125,-23.472999572753906 C144.05499267578125,-23.472999572753906 183.99200439453125,-46.53799819946289 183.99200439453125,-46.53799819946289 C196.2830047607422,-53.83000183105469 200.6580047607422,-69.66200256347656 193.5749969482422,-82.16100311279297 C193.5749969482422,-82.16100311279297 167.53500366210938,-127.15799713134766 167.53500366210938,-127.15799713134766 C163.9929962158203,-133.1999969482422 158.36900329589844,-137.57400512695312 151.7030029296875,-139.44900512695312 C144.8280029296875,-141.11599731445312 137.7449951171875,-140.2830047607422 131.91200256347656,-136.74099731445312 C131.91200256347656,-136.74099731445312 91.9280014038086,-113.64800262451172 91.9280014038086,-113.64800262451172 C80.05899810791016,-123.30500030517578 66.64800262451172,-131.1320037841797 52.125999450683594,-136.7030029296875 C52.125999450683594,-136.7030029296875 52.125999450683594,-182.77999877929688 52.125999450683594,-182.77999877929688 C52.125999450683594,-197.1540069580078 40.459999084472656,-208.82000732421875 26.086000442504883,-208.82000732421875 C26.086000442504883,-208.82000732421875 -25.993999481201172,-208.82000732421875 -25.993999481201172,-208.82000732421875 C-40.36800003051758,-208.82000732421875 -52.034000396728516,-197.1540069580078 -52.034000396728516,-182.77999877929688 C-52.034000396728516,-182.77999877929688 -52.034000396728516,-136.7030029296875 -52.034000396728516,-136.7030029296875 C-66.55599975585938,-131.1320037841797 -79.96700286865234,-123.30500030517578 -91.83599853515625,-113.64800262451172 C-91.83599853515625,-113.64800262451172 -131.82000732421875,-136.74099731445312 -131.82000732421875,-136.74099731445312 C-137.86099243164062,-140.2830047607422 -144.73599243164062,-141.11599731445312 -151.61099243164062,-139.44900512695312 C-158.27699279785156,-137.57400512695312 -163.9010009765625,-133.1999969482422 -167.4429931640625,-127.15799713134766 C-167.4429931640625,-127.15799713134766 -193.48300170898438,-82.16200256347656 -193.48300170898438,-82.16200256347656 C-200.5659942626953,-69.66200256347656 -196.1909942626953,-53.62099838256836 -183.89999389648438,-46.53799819946289 C-183.89999389648438,-46.53799819946289 -143.96299743652344,-23.472000122070312 -143.96299743652344,-23.472000122070312 C-145.15199279785156,-15.987000465393066 -145.7779998779297,-8.3149995803833 -145.7779998779297,-0.5 C-145.7779998779297,7.315000057220459 -145.15199279785156,14.986000061035156 -143.96299743652344,22.472000122070312 C-143.96299743652344,22.472000122070312 -183.89999389648438,45.53900146484375 -183.89999389648438,45.53900146484375 C-196.1909942626953,52.62200164794922 -200.5659942626953,68.66200256347656 -193.48300170898438,81.16100311279297 C-193.48300170898438,81.16100311279297 -167.4429931640625,126.15799713134766 -167.4429931640625,126.15799713134766 C-163.9010009765625,132.1999969482422 -158.27699279785156,136.57400512695312 -151.61099243164062,138.44900512695312 C-149.31900024414062,138.86599731445312 -147.0279998779297,139.2830047607422 -144.73599243164062,139.2830047607422 C-140.1529998779297,139.2830047607422 -135.7779998779297,138.0330047607422 -131.82000732421875,135.74099731445312 C-131.82000732421875,135.74099731445312 -91.83599853515625,112.64800262451172 -91.83599853515625,112.64800262451172 C-79.96700286865234,122.30400085449219 -66.55599975585938,130.1320037841797 -52.034000396728516,135.7030029296875 C-52.034000396728516,135.7030029296875 -52.034000396728516,181.77999877929688 -52.034000396728516,181.77999877929688 C-52.034000396728516,196.1540069580078 -40.36800003051758,207.82000732421875 -25.993999481201172,207.82000732421875 C-25.993999481201172,207.82000732421875 26.086000442504883,207.82000732421875 26.086000442504883,207.82000732421875 C40.459999084472656,207.82000732421875 52.125999450683594,196.1540069580078 52.125999450683594,181.77999877929688 C52.125999450683594,181.77999877929688 52.125999450683594,135.7030029296875 52.125999450683594,135.7030029296875 C66.64800262451172,130.1320037841797 80.05899810791016,122.30400085449219 91.9280014038086,112.64800262451172 C91.9280014038086,112.64800262451172 131.91200256347656,135.74099731445312 131.91200256347656,135.74099731445312 C135.8699951171875,138.0330047607422 140.2449951171875,139.2830047607422 144.8280029296875,139.2830047607422 C147.1199951171875,139.2830047607422 149.41099548339844,138.86599731445312 151.7030029296875,138.44900512695312 C158.36900329589844,136.57400512695312 163.9929962158203,132.1999969482422 167.53500366210938,126.15799713134766 C167.53500366210938,126.15799713134766 193.5749969482422,81.16100311279297 193.5749969482422,81.16100311279297 C200.6580047607422,68.66200256347656 196.2830047607422,52.83000183105469 183.99200439453125,45.53900146484375z M0.04600000008940697,72.41200256347656 C-40.15999984741211,72.41200256347656 -72.86599731445312,39.70600128173828 -72.86599731445312,-0.5 C-72.86599731445312,-40.70600128173828 -40.15999984741211,-73.41200256347656 0.04600000008940697,-73.41200256347656 C40.25199890136719,-73.41200256347656 72.95800018310547,-40.70600128173828 72.95800018310547,-0.5 C72.95800018310547,39.70600128173828 40.25199890136719,72.41200256347656 0.04600000008940697,72.41200256347656z"/></g></g></g></g></svg>