<svg xmlns="http://www.w3.org/2000/svg" xmlns:xlink="http://www.w3.org/1999/xlink" viewBox="0 0 240 240" width="240" height="240" style="width: 100%; height: 100%; transform: translate3d(0px, 0px, 0px); content-visibility: visible;" preserveAspectRatio="xMidYMid meet"><defs><clipPath id="__lottie_element_2"><rect width="240" height="240" x="0" y="0"/></clipPath><clipPath id="__lottie_element_4"><path d="M0,0 L240,0 L240,240 L0,240z"/></clipPath></defs><g clip-path="url(#__lottie_element_2)"><g clip-path="url(#__lottie_element_4)" style="display: block;" transform="matrix(1,0,0,1,0,0)" opacity="1"><g style="display: block;" transform="matrix(1,0,0,1,55,120)" opacity="1"><path class="secondary" fill="rgb(255,0,0)" fill-opacity="1" d=" M0,27.5 C15.187999725341797,27.5 27.5,15.187999725341797 27.5,0 C27.5,-15.187999725341797 15.187999725341797,-27.5 0,-27.5 C-15.187999725341797,-27.5 -27.5,-15.187999725341797 -27.5,0 C-27.5,15.187999725341797 -15.187999725341797,27.5 0,27.5z"/><g opacity="1" transform="matrix(1,0,0,1,0,0)"><path class="primary" fill="rgb(0,0,0)" fill-opacity="1" d=" M0,27.5 C15.187999725341797,27.5 27.5,15.187999725341797 27.5,0 C27.5,-15.187999725341797 15.187999725341797,-27.5 0,-27.5 C-15.187999725341797,-27.5 -27.5,-15.187999725341797 -27.5,0 C-27.5,15.187999725341797 -15.187999725341797,27.5 0,27.5z"/><path stroke-linecap="round" stroke-linejoin="round" fill-opacity="0" class="primary" stroke="rgb(0,0,0)" stroke-opacity="1" stroke-width="15" d=" M0,27.5 C15.187999725341797,27.5 27.5,15.187999725341797 27.5,0 C27.5,-15.187999725341797 15.187999725341797,-27.5 0,-27.5 C-15.187999725341797,-27.5 -27.5,-15.187999725341797 -27.5,0 C-27.5,15.187999725341797 -15.187999725341797,27.5 0,27.5z"/></g></g><g style="display: none;" transform="matrix(1,0,0,1,205,37.5)" opacity="1"><path class="secondary" fill="rgb(255,0,0)" fill-opacity="1" d=" M0,0 C0,0 0,0 0,0 C0,0 0,0 0,0 C0,0 0,0 0,0 C0,0 0,0 0,0z"/><g opacity="1" transform="matrix(1,0,0,1,0,0)"><path class="primary" fill="rgb(0,0,0)" fill-opacity="1" d=" M0,0 C0,0 0,0 0,0 C0,0 0,0 0,0 C0,0 0,0 0,0 C0,0 0,0 0,0z"/><path stroke-linecap="round" stroke-linejoin="round" fill-opacity="0" class="primary" stroke="rgb(0,0,0)" stroke-opacity="1" stroke-width="15" d=" M0,0 C0,0 0,0 0,0 C0,0 0,0 0,0 C0,0 0,0 0,0 C0,0 0,0 0,0z"/></g></g><g style="display: none;" transform="matrix(1,0,0,1,204.0019989013672,199)" opacity="1"><path class="secondary" fill="rgb(255,0,0)" fill-opacity="1" d=" M0,1 C0.5519999861717224,1 1,0.5519999861717224 1,0 C1,-0.5519999861717224 0.5519999861717224,-1 0,-1 C-0.5519999861717224,-1 -1,-0.5519999861717224 -1,0 C-1,0.5519999861717224 -0.5519999861717224,1 0,1z"/><g opacity="1" transform="matrix(1,0,0,1,0,0)"><path class="primary" fill="rgb(0,0,0)" fill-opacity="1" d=" M0,1 C0.5519999861717224,1 1,0.5519999861717224 1,0 C1,-0.5519999861717224 0.5519999861717224,-1 0,-1 C-0.5519999861717224,-1 -1,-0.5519999861717224 -1,0 C-1,0.5519999861717224 -0.5519999861717224,1 0,1z"/><path stroke-linecap="round" stroke-linejoin="round" fill-opacity="0" class="primary" stroke="rgb(0,0,0)" stroke-opacity="1" stroke-width="15" d=" M0,1 C0.5519999861717224,1 1,0.5519999861717224 1,0 C1,-0.5519999861717224 0.5519999861717224,-1 0,-1 C-0.5519999861717224,-1 -1,-0.5519999861717224 -1,0 C-1,0.5519999861717224 -0.5519999861717224,1 0,1z"/></g></g><g style="display: block;" transform="matrix(1,0,0,1,144.07899475097656,133.9980010986328)" opacity="1"><g opacity="1" transform="matrix(1,0,0,1,0,0)"><path stroke-linecap="round" stroke-linejoin="round" fill-opacity="0" class="primary" stroke="rgb(0,0,0)" stroke-opacity="1" stroke-width="15" d="M0 0"/></g></g><g style="display: block;" transform="matrix(1,0,0,1,145.07899475097656,102.49800109863281)" opacity="1"><g opacity="1" transform="matrix(1,0,0,1,0,0)"><path stroke-linecap="round" stroke-linejoin="round" fill-opacity="0" class="primary" stroke="rgb(0,0,0)" stroke-opacity="1" stroke-width="15" d="M0 0"/></g></g><g style="display: block;" transform="matrix(1,0,0,1,175.0019989013672,185)" opacity="1"><path class="secondary" fill="rgb(255,0,0)" fill-opacity="1" d=" M-25.683000564575195,-9.85200023651123 C-26.85700035095215,-6.794000148773193 -27.5,-3.4719998836517334 -27.5,0 C-27.5,15.187999725341797 -15.187999725341797,27.5 0,27.5 C0,27.5 0,27.5 0,27.5 C15.187999725341797,27.5 27.5,15.187999725341797 27.5,0 C27.5,-15.187999725341797 15.187999725341797,-27.5 0,-27.5 C-11.715999603271484,-27.5 -21.72100067138672,-20.173999786376953 -25.683000564575195,-9.85200023651123"/><g opacity="1" transform="matrix(1,0,0,1,0,0)"><path class="primary" fill="rgb(0,0,0)" fill-opacity="1" d=" M-25.683000564575195,-9.85200023651123 C-26.85700035095215,-6.794000148773193 -27.5,-3.4719998836517334 -27.5,0 C-27.5,15.187999725341797 -15.187999725341797,27.5 0,27.5 C0,27.5 0,27.5 0,27.5 C15.187999725341797,27.5 27.5,15.187999725341797 27.5,0 C27.5,-15.187999725341797 15.187999725341797,-27.5 0,-27.5 C-11.715999603271484,-27.5 -21.72100067138672,-20.173999786376953 -25.683000564575195,-9.85200023651123"/><path stroke-linecap="round" stroke-linejoin="round" fill-opacity="0" class="primary" stroke="rgb(0,0,0)" stroke-opacity="1" stroke-width="15" d=" M-25.683000564575195,-9.85200023651123 C-26.85700035095215,-6.794000148773193 -27.5,-3.4719998836517334 -27.5,0 C-27.5,15.187999725341797 -15.187999725341797,27.5 0,27.5 C0,27.5 0,27.5 0,27.5 C15.187999725341797,27.5 27.5,15.187999725341797 27.5,0 C27.5,-15.187999725341797 15.187999725341797,-27.5 0,-27.5 C-11.715999603271484,-27.5 -21.72100067138672,-20.173999786376953 -25.683000564575195,-9.85200023651123"/></g></g><g style="display: block;" transform="matrix(1,0,0,1,115.07899475097656,119.99800109863281)" opacity="1"><g opacity="1" transform="matrix(1,0,0,1,0,0)"><path stroke-linecap="round" stroke-linejoin="round" fill-opacity="0" class="primary" stroke="rgb(0,0,0)" stroke-opacity="1" stroke-width="15" d=" M-36.106998443603516,13.484999656677246 C-36.106998443603516,13.484999656677246 36.106998443603516,51.24800109863281 36.106998443603516,51.24800109863281"/></g></g><g style="display: block;" transform="matrix(1,0,0,1,175,55)" opacity="1"><path class="secondary" fill="rgb(255,0,0)" fill-opacity="1" d=" M-23.822999954223633,13.746999740600586 C-19.06800079345703,21.968000411987305 -10.180000305175781,27.5 0,27.5 C0,27.5 0,27.5 0,27.5 C15.187999725341797,27.5 27.5,15.187999725341797 27.5,0 C27.5,-15.187999725341797 15.187999725341797,-27.5 0,-27.5 C-15.187999725341797,-27.5 -27.5,-15.187999725341797 -27.5,0 C-27.5,5.007999897003174 -26.16200065612793,9.70300006866455 -23.822999954223633,13.746999740600586"/><g opacity="1" transform="matrix(1,0,0,1,0,0)"><path class="primary" fill="rgb(0,0,0)" fill-opacity="1" d=" M-23.822999954223633,13.746999740600586 C-19.06800079345703,21.968000411987305 -10.180000305175781,27.5 0,27.5 C0,27.5 0,27.5 0,27.5 C15.187999725341797,27.5 27.5,15.187999725341797 27.5,0 C27.5,-15.187999725341797 15.187999725341797,-27.5 0,-27.5 C-15.187999725341797,-27.5 -27.5,-15.187999725341797 -27.5,0 C-27.5,5.007999897003174 -26.16200065612793,9.70300006866455 -23.822999954223633,13.746999740600586"/><path stroke-linecap="round" stroke-linejoin="round" fill-opacity="0" class="primary" stroke="rgb(0,0,0)" stroke-opacity="1" stroke-width="15" d=" M-23.822999954223633,13.746999740600586 C-19.06800079345703,21.968000411987305 -10.180000305175781,27.5 0,27.5 C0,27.5 0,27.5 0,27.5 C15.187999725341797,27.5 27.5,15.187999725341797 27.5,0 C27.5,-15.187999725341797 15.187999725341797,-27.5 0,-27.5 C-15.187999725341797,-27.5 -27.5,-15.187999725341797 -27.5,0 C-27.5,5.007999897003174 -26.16200065612793,9.70300006866455 -23.822999954223633,13.746999740600586"/></g></g><g style="display: block;" transform="matrix(1,0,0,1,115.07899475097656,119.99800109863281)" opacity="1"><g opacity="1" transform="matrix(1,0,0,1,0,0)"><path stroke-linecap="round" stroke-linejoin="round" fill-opacity="0" class="primary" stroke="rgb(0,0,0)" stroke-opacity="1" stroke-width="15" d=" M-36.106998443603516,-13.484999656677246 C-36.106998443603516,-13.484999656677246 36.106998443603516,-51.24800109863281 36.106998443603516,-51.24800109863281"/></g></g></g></g></svg>