<svg xmlns="http://www.w3.org/2000/svg" xmlns:xlink="http://www.w3.org/1999/xlink" viewBox="0 0 500 500" width="500" height="500" style="width: 100%; height: 100%; transform: translate3d(0px, 0px, 0px); content-visibility: visible;" preserveAspectRatio="xMidYMid meet"><defs><clipPath id="__lottie_element_2"><rect width="500" height="500" x="0" y="0"/></clipPath><clipPath id="__lottie_element_4"><path d="M0,0 L500,0 L500,500 L0,500z"/></clipPath></defs><g clip-path="url(#__lottie_element_2)"><g clip-path="url(#__lottie_element_4)" style="display: block;" transform="matrix(1,0,0,1,0,0)" opacity="1"><g class="primary design" style="display: none;"><g><path stroke-linecap="round" stroke-linejoin="round" fill-opacity="0" class="primary"/></g><g><path stroke-linecap="round" stroke-linejoin="round" fill-opacity="0" class="primary"/></g></g><g class="primary design" style="display: none;"><g><path stroke-linecap="round" stroke-linejoin="round" fill-opacity="0" class="primary"/></g><g><path stroke-linecap="round" stroke-linejoin="round" fill-opacity="0" class="primary"/></g></g><g class="primary design" style="display: none;"><g><path stroke-linecap="round" stroke-linejoin="round" fill-opacity="0" class="primary"/></g><g><path stroke-linecap="round" stroke-linejoin="round" fill-opacity="0" class="primary"/></g></g><g class="primary design" style="display: none;"><g><path stroke-linecap="round" stroke-linejoin="round" fill-opacity="0" class="primary"/></g></g><g class="primary design" style="display: block;" transform="matrix(20.829999923706055,0,0,20.829999923706055,248.75900268554688,248.75999450683594)" opacity="1"><g opacity="1" transform="matrix(1,0,0,1,0,0)"><path class="primary" fill="rgb(0,0,0)" fill-opacity="1" d=" M6.71999979019165,-4.5 C6.71999979019165,-4.5 5.96999979019165,-4.5 5.96999979019165,-4.5 C5.96999979019165,-4.5 -5.96999979019165,-4.5 -5.96999979019165,-4.5 C-5.96999979019165,-4.5 -6.71999979019165,-4.5 -6.71999979019165,-4.5 C-6.71999979019165,-4.5 -7.480000019073486,-4.5 -7.480000019073486,-4.5 C-7.480000019073486,-4.5 -6.139999866485596,7.579999923706055 -6.139999866485596,7.579999923706055 C-5.989999771118164,8.960000038146973 -4.809999942779541,10 -3.4100000858306885,10 C-3.4100000858306885,10 3.4100000858306885,10 3.4100000858306885,10 C4.809999942779541,10 5.989999771118164,8.960000038146973 6.139999866485596,7.579999923706055 C6.139999866485596,7.579999923706055 7.480000019073486,-4.5 7.480000019073486,-4.5 C7.480000019073486,-4.5 6.71999979019165,-4.5 6.71999979019165,-4.5z M1,0 C1,-0.550000011920929 1.4500000476837158,-1 2,-1 C2.549999952316284,-1 3,-0.550000011920929 3,0 C3,0 3,6 3,6 C3,6.550000190734863 2.549999952316284,7 2,7 C1.4500000476837158,7 1,6.550000190734863 1,6 C1,6 1,0 1,0z M-3,0 C-3,-0.550000011920929 -2.549999952316284,-1 -2,-1 C-1.4500000476837158,-1 -1,-0.550000011920929 -1,0 C-1,0 -1,6 -1,6 C-1,6.550000190734863 -1.4500000476837158,7 -2,7 C-2.549999952316284,7 -3,6.550000190734863 -3,6 C-3,6 -3,0 -3,0z"/></g></g><g class="primary design" style="display: block;" transform="matrix(20.829999923706055,0,0,20.829999923706055,248.75599670410156,82.11599731445312)" opacity="1"><g opacity="1" transform="matrix(1,0,0,1,0,0)"><path class="primary" fill="rgb(0,0,0)" fill-opacity="1" d=" M8,0 C8,0 1,0 1,0 C1,0 1,-1 1,-1 C1,-1.5520000457763672 0.5529999732971191,-2 0,-2 C-0.5529999732971191,-2 -1,-1.5520000457763672 -1,-1 C-1,-1 -1,0 -1,0 C-1,0 -8,0 -8,0 C-8.553000450134277,0 -9,0.4480000138282776 -9,1 C-9,1.5520000457763672 -8.553000450134277,2 -8,2 C-8,2 8,2 8,2 C8.553000450134277,2 9,1.5520000457763672 9,1 C9,0.4480000138282776 8.553000450134277,0 8,0z"/></g></g><g class="primary design" style="display: none;" transform="matrix(20.123794555664062,5.377895355224609,-5.377895355224609,20.123794555664062,269.9744873046875,45.97321319580078)" opacity="1"><g opacity="1" transform="matrix(1,0,0,1,0,0)"><path class="primary" fill="rgb(18,19,49)" fill-opacity="1" d=" M8,0 C8,0 1,0 1,0 C1,0 1,-1 1,-1 C1,-1.5520000457763672 0.5529999732971191,-2 0,-2 C-0.5529999732971191,-2 -1,-1.5520000457763672 -1,-1 C-1,-1 -1,0 -1,0 C-1,0 -8,0 -8,0 C-8.553000450134277,0 -9,0.4480000138282776 -9,1 C-9,1.5520000457763672 -8.553000450134277,2 -8,2 C-8,2 8,2 8,2 C8.553000450134277,2 9,1.5520000457763672 9,1 C9,0.4480000138282776 8.553000450134277,0 8,0z"/></g></g><g class="primary design" style="display: none;" transform="matrix(20.828857421875,-0.2181272655725479,0.2181272655725479,20.828857421875,246.62399291992188,83.53500366210938)" opacity="1"><g opacity="1" transform="matrix(1,0,0,1,0,0)"><path class="primary" fill="rgb(0,0,0)" fill-opacity="1" d=" M8,0 C8,0 1,0 1,0 C1,0 1,-1 1,-1 C1,-1.5520000457763672 0.5529999732971191,-2 0,-2 C-0.5529999732971191,-2 -1,-1.5520000457763672 -1,-1 C-1,-1 -1,0 -1,0 C-1,0 -8,0 -8,0 C-8.553000450134277,0 -9,0.4480000138282776 -9,1 C-9,1.5520000457763672 -8.553000450134277,2 -8,2 C-8,2 8,2 8,2 C8.553000450134277,2 9,1.5520000457763672 9,1 C9,0.4480000138282776 8.553000450134277,0 8,0z"/></g></g></g></g></svg>